<svg width="46" height="46" viewBox="0 0 46 46" fill="none" xmlns="http://www.w3.org/2000/svg">
<rect width="46" height="46" rx="23" fill="#F3F3F3"/>
<path d="M15.1583 30.6914C14.8301 30.6914 14.5552 30.5802 14.3336 30.3578C14.112 30.1354 14.0008 29.8605 14 29.5331C13.9992 29.2057 14.1104 28.9308 14.3336 28.7084C14.5568 28.486 14.8317 28.3748 15.1583 28.3748H16.3166V20.2665C16.3166 18.6642 16.7993 17.2406 17.7645 15.9958C18.7298 14.751 19.9846 13.9352 21.5291 13.5483V12.7375C21.5291 12.2548 21.6982 11.8448 22.0364 11.5073C22.3746 11.1699 22.7847 11.0008 23.2665 11C23.7484 10.9992 24.1588 11.1683 24.4978 11.5073C24.8368 11.8463 25.0056 12.2564 25.004 12.7375V13.5483C26.5484 13.9344 27.8033 14.7502 28.7685 15.9958C29.7338 17.2414 30.2164 18.665 30.2164 20.2665V28.3748H31.3748C31.703 28.3748 31.9782 28.486 32.2006 28.7084C32.423 28.9308 32.5338 29.2057 32.5331 29.5331C32.5323 29.8605 32.4211 30.1358 32.1995 30.359C31.9779 30.5821 31.703 30.6929 31.3748 30.6914H15.1583ZM23.2665 34.1663C22.6295 34.1663 22.0843 33.9397 21.631 33.4864C21.1777 33.0331 20.9507 32.4876 20.9499 31.8497H25.5832C25.5832 32.4868 25.3565 33.0324 24.9032 33.4864C24.45 33.9405 23.9044 34.1671 23.2665 34.1663Z" fill="#272727"/>
</svg>
