<svg width="112" height="112" viewBox="0 0 112 112" fill="none" xmlns="http://www.w3.org/2000/svg">
<g filter="url(#filter0_d_3928_3858)">
<rect x="17" y="13" width="78" height="78" rx="39" fill="url(#paint0_linear_3928_3858)"/>
<path d="M52.4077 62.9425C52.4077 63.5511 52.6495 64.1348 53.0799 64.5652C53.5103 64.9956 54.094 65.2374 54.7027 65.2374C55.3114 65.2374 55.8951 64.9956 56.3255 64.5652C56.7559 64.1348 56.9976 63.5511 56.9976 62.9425V52.9976H66.9425C67.5511 52.9976 68.1348 52.7559 68.5652 52.3255C68.9956 51.8951 69.2374 51.3114 69.2374 50.7027C69.2374 50.094 68.9956 49.5103 68.5652 49.0799C68.1348 48.6495 67.5511 48.4077 66.9425 48.4077H56.9976V38.4629C56.9976 37.8543 56.7559 37.2705 56.3255 36.8401C55.8951 36.4098 55.3114 36.168 54.7027 36.168C54.094 36.168 53.5103 36.4098 53.0799 36.8401C52.6495 37.2705 52.4077 37.8543 52.4077 38.4629V48.4077H42.4629C41.8543 48.4077 41.2705 48.6495 40.8401 49.0799C40.4098 49.5103 40.168 50.094 40.168 50.7027C40.168 51.3114 40.4098 51.8951 40.8401 52.3255C41.2705 52.7559 41.8543 52.9976 42.4629 52.9976H52.4077V62.9425Z" fill="white"/>
</g>
<defs>
<filter id="filter0_d_3928_3858" x="0" y="0" width="112" height="112" filterUnits="userSpaceOnUse" color-interpolation-filters="sRGB">
<feFlood flood-opacity="0" result="BackgroundImageFix"/>
<feColorMatrix in="SourceAlpha" type="matrix" values="0 0 0 0 0 0 0 0 0 0 0 0 0 0 0 0 0 0 127 0" result="hardAlpha"/>
<feMorphology radius="3" operator="dilate" in="SourceAlpha" result="effect1_dropShadow_3928_3858"/>
<feOffset dy="4"/>
<feGaussianBlur stdDeviation="7"/>
<feComposite in2="hardAlpha" operator="out"/>
<feColorMatrix type="matrix" values="0 0 0 0 0 0 0 0 0 0 0 0 0 0 0 0 0 0 0.1 0"/>
<feBlend mode="normal" in2="BackgroundImageFix" result="effect1_dropShadow_3928_3858"/>
<feBlend mode="normal" in="SourceGraphic" in2="effect1_dropShadow_3928_3858" result="shape"/>
</filter>
<linearGradient id="paint0_linear_3928_3858" x1="56" y1="13" x2="56" y2="91" gradientUnits="userSpaceOnUse">
<stop stop-color="#B5E67E"/>
<stop offset="1" stop-color="#619B21"/>
</linearGradient>
</defs>
</svg>
