<svg width="49" height="49" viewBox="0 0 49 49" fill="none" xmlns="http://www.w3.org/2000/svg">
<rect width="49" height="49" rx="24.5" fill="#E7FFCC"/>
<g clip-path="url(#clip0_881_969)">
<path fill-rule="evenodd" clip-rule="evenodd" d="M34.7912 15.2091C34.8891 15.3069 34.9565 15.4311 34.9852 15.5665C35.0138 15.702 35.0025 15.8428 34.9526 15.9719L27.8098 34.5434C27.7592 34.6748 27.6709 34.7883 27.556 34.8697C27.4411 34.9511 27.3048 34.9967 27.164 35.0008C27.0233 35.005 26.8845 34.9674 26.765 34.8929C26.6455 34.8183 26.5508 34.7102 26.4926 34.5819L23.5055 28.0105L27.8998 23.6148C28.089 23.4117 28.1921 23.143 28.1872 22.8655C28.1823 22.5879 28.0698 22.3231 27.8735 22.1268C27.6772 21.9304 27.4124 21.818 27.1348 21.8131C26.8572 21.8082 26.5886 21.9112 26.3855 22.1005L21.9898 26.4948L15.4183 23.5091C15.2897 23.451 15.1812 23.3561 15.1064 23.2364C15.0317 23.1167 14.9941 22.9775 14.9984 22.8364C15.0027 22.6954 15.0486 22.5587 15.1305 22.4438C15.2123 22.3288 15.3264 22.2407 15.4583 22.1905L34.0298 15.0476C34.1587 14.998 34.2992 14.9869 34.4344 15.0155C34.5695 15.0442 34.6935 15.1114 34.7912 15.2091Z" fill="#79B833"/>
</g>
<defs>
<clipPath id="clip0_881_969">
<rect width="20" height="20" fill="white" transform="translate(15 15)"/>
</clipPath>
</defs>
</svg>
