<svg width="66" height="66" viewBox="0 0 66 66" fill="none" xmlns="http://www.w3.org/2000/svg">
<path d="M33 4.125C40.6581 4.125 48.0026 7.16718 53.4177 12.5823C58.8328 17.9974 61.875 25.3419 61.875 33C61.875 40.6581 58.8328 48.0026 53.4177 53.4177C48.0026 58.8328 40.6581 61.875 33 61.875C25.3419 61.875 17.9974 58.8328 12.5823 53.4177C7.16718 48.0026 4.125 40.6581 4.125 33C4.125 25.3419 7.16718 17.9974 12.5823 12.5823C17.9974 7.16718 25.3419 4.125 33 4.125ZM29.403 38.6966L22.9886 32.2781C22.7587 32.0482 22.4857 31.8658 22.1852 31.7413C21.8848 31.6169 21.5628 31.5528 21.2376 31.5528C20.9124 31.5528 20.5903 31.6169 20.2899 31.7413C19.9894 31.8658 19.7165 32.0482 19.4865 32.2781C19.0221 32.7425 18.7612 33.3724 18.7612 34.0292C18.7612 34.686 19.0221 35.3158 19.4865 35.7802L27.654 43.9478C27.8833 44.1789 28.1561 44.3623 28.4566 44.4875C28.7572 44.6127 29.0795 44.6771 29.4051 44.6771C29.7306 44.6771 30.053 44.6127 30.3535 44.4875C30.654 44.3623 30.9268 44.1789 31.1561 43.9478L48.0686 27.0311C48.3017 26.8021 48.487 26.5293 48.6141 26.2283C48.7411 25.9273 48.8073 25.6041 48.8088 25.2774C48.8103 24.9507 48.7472 24.6269 48.6229 24.3247C48.4987 24.0225 48.3159 23.748 48.085 23.5168C47.8541 23.2856 47.5797 23.1025 47.2777 22.9779C46.9757 22.8533 46.652 22.7897 46.3253 22.7909C45.9985 22.792 45.6753 22.8578 45.3741 22.9845C45.073 23.1112 44.7999 23.2962 44.5706 23.529L29.403 38.6966Z" fill="#79B833"/>
</svg>
