<svg width="340" height="470" viewBox="0 0 340 470" fill="none" xmlns="http://www.w3.org/2000/svg">
<g opacity="0.7">
<g clip-path="url(#clip0_3910_3307)">
<rect width="340" height="470" rx="20" fill="white"/>
<path d="M13.6643 25.5V14.6818H15.4262L21.2216 22.1618V14.6818H23.0916V25.5H21.4998L15.5343 17.8036V25.5H13.6643ZM29.3977 25.6855C27.0331 25.6855 25.2095 23.97 25.2095 21.4509V21.42C25.2095 19.0864 26.8631 17.17 29.1968 17.17C31.7931 17.17 33.1068 19.21 33.1068 21.5591C33.1068 21.7291 33.0913 21.8991 33.0759 22.0845H27.0795C27.2804 23.4136 28.2231 24.1555 29.4286 24.1555C30.3404 24.1555 30.9895 23.8155 31.6386 23.1818L32.7359 24.1555C31.9631 25.0827 30.8968 25.6855 29.3977 25.6855ZM27.064 20.8482H31.2522C31.1286 19.6427 30.4177 18.7 29.1813 18.7C28.0377 18.7 27.234 19.5809 27.064 20.8482ZM36.5551 25.5618L33.9123 17.34H35.8287L37.4669 22.9345L39.2751 17.3091H40.8823L42.6905 22.9345L44.3596 17.34H46.2451L43.5714 25.5618H41.8869L40.0632 19.9827L38.2242 25.5618H36.5551ZM52.7535 25.5V14.6818H57.0189C59.5535 14.6818 61.1298 16.1191 61.1298 18.2982V18.3291C61.1298 20.7555 59.1826 22.0227 56.8026 22.0227H54.6544V25.5H52.7535ZM54.6544 20.3073H56.8644C58.3017 20.3073 59.198 19.5036 59.198 18.3755V18.3445C59.198 17.0773 58.2862 16.4127 56.8644 16.4127H54.6544V20.3073ZM62.8603 25.5V17.34H64.7303V19.1791C65.2403 17.9582 66.183 17.1236 67.6203 17.1855V19.1636H67.5121C65.8739 19.1636 64.7303 20.23 64.7303 22.3936V25.5H62.8603ZM72.8518 25.6855C70.3636 25.6855 68.5245 23.7845 68.5245 21.4664V21.4355C68.5245 19.1018 70.379 17.17 72.8827 17.17C75.3863 17.17 77.2254 19.0709 77.2254 21.4045V21.4355C77.2254 23.7536 75.3708 25.6855 72.8518 25.6855ZM72.8827 24.0473C74.3972 24.0473 75.3554 22.8727 75.3554 21.4664V21.4355C75.3554 19.9982 74.3199 18.8082 72.8518 18.8082C71.3527 18.8082 70.3945 19.9827 70.3945 21.4045V21.4355C70.3945 22.8573 71.4299 24.0473 72.8827 24.0473ZM79.1298 27.9727V17.34H80.9998V18.7C81.6025 17.85 82.4525 17.17 83.7816 17.17C85.698 17.17 87.568 18.6845 87.568 21.4045V21.4355C87.568 24.14 85.7134 25.67 83.7816 25.67C82.4216 25.67 81.5716 24.99 80.9998 24.2327V27.9727H79.1298ZM83.3334 24.0473C84.6162 24.0473 85.6671 23.0427 85.6671 21.4355V21.4045C85.6671 19.8282 84.6007 18.7927 83.3334 18.7927C82.0662 18.7927 80.9534 19.8436 80.9534 21.4045V21.4355C80.9534 22.9964 82.0662 24.0473 83.3334 24.0473ZM93.2382 25.6855C90.8737 25.6855 89.05 23.97 89.05 21.4509V21.42C89.05 19.0864 90.7037 17.17 93.0373 17.17C95.6337 17.17 96.9473 19.21 96.9473 21.5591C96.9473 21.7291 96.9319 21.8991 96.9164 22.0845H90.92C91.121 23.4136 92.0637 24.1555 93.2691 24.1555C94.181 24.1555 94.83 23.8155 95.4791 23.1818L96.5764 24.1555C95.8037 25.0827 94.7373 25.6855 93.2382 25.6855ZM90.9046 20.8482H95.0928C94.9691 19.6427 94.2582 18.7 93.0219 18.7C91.8782 18.7 91.0746 19.5809 90.9046 20.8482ZM98.8253 25.5V17.34H100.695V19.1791C101.205 17.9582 102.148 17.1236 103.585 17.1855V19.1636H103.477C101.839 19.1636 100.695 20.23 100.695 22.3936V25.5H98.8253ZM107.945 25.6391C106.569 25.6391 105.596 25.0364 105.596 23.2436V18.9473H104.56V17.34H105.596V15.0991H107.466V17.34H109.66V18.9473H107.466V22.95C107.466 23.6764 107.837 23.97 108.47 23.97C108.888 23.97 109.258 23.8773 109.629 23.6918V25.2218C109.166 25.4845 108.656 25.6391 107.945 25.6391ZM111.594 16.0882V14.3109H113.603V16.0882H111.594ZM111.671 25.5V17.34H113.541V25.5H111.671ZM119.725 25.6855C117.361 25.6855 115.537 23.97 115.537 21.4509V21.42C115.537 19.0864 117.191 17.17 119.524 17.17C122.121 17.17 123.434 19.21 123.434 21.5591C123.434 21.7291 123.419 21.8991 123.403 22.0845H117.407C117.608 23.4136 118.551 24.1555 119.756 24.1555C120.668 24.1555 121.317 23.8155 121.966 23.1818L123.063 24.1555C122.291 25.0827 121.224 25.6855 119.725 25.6855ZM117.392 20.8482H121.58C121.456 19.6427 120.745 18.7 119.509 18.7C118.365 18.7 117.562 19.5809 117.392 20.8482ZM128.11 25.6545C126.951 25.6545 125.668 25.2373 124.648 24.4336L125.482 23.1664C126.379 23.8309 127.321 24.1709 128.156 24.1709C128.96 24.1709 129.423 23.8309 129.423 23.29V23.2591C129.423 22.6255 128.558 22.4091 127.6 22.1155C126.394 21.7755 125.05 21.2809 125.05 19.72V19.6891C125.05 18.1436 126.332 17.2009 127.955 17.2009C128.975 17.2009 130.088 17.5564 130.953 18.1282L130.211 19.4573C129.423 18.9782 128.589 18.6845 127.909 18.6845C127.182 18.6845 126.765 19.0245 126.765 19.4882V19.5191C126.765 20.1218 127.646 20.3691 128.604 20.6782C129.794 21.0491 131.139 21.59 131.139 23.0582V23.0891C131.139 24.8045 129.81 25.6545 128.11 25.6545Z" fill="#272727"/>
<g clip-path="url(#clip1_3910_3307)">
<rect x="12.2734" y="74.0391" width="321.455" height="720.233" rx="23.1818" fill="white"/>
<g filter="url(#filter0_d_3910_3307)">
<rect x="21.5469" y="363.039" width="302.909" height="364.727" rx="23.1818" fill="white"/>
<path d="M41.4808 396.357V385.539H45.7462C48.2808 385.539 49.8571 386.977 49.8571 389.156V389.187C49.8571 391.613 47.9098 392.88 45.5298 392.88H43.3817V396.357H41.4808ZM43.3817 391.165H45.5917C47.0289 391.165 47.9253 390.361 47.9253 389.233V389.202C47.9253 387.935 47.0135 387.27 45.5917 387.27H43.3817V391.165ZM53.7857 396.527C52.2557 396.527 50.8957 395.647 50.8957 394.008V393.977C50.8957 392.216 52.2712 391.35 54.2648 391.35C55.1766 391.35 55.8257 391.489 56.4593 391.69V391.489C56.4593 390.33 55.7484 389.712 54.4348 389.712C53.523 389.712 52.843 389.913 52.1012 390.222L51.6066 388.754C52.503 388.352 53.3839 388.089 54.6821 388.089C55.903 388.089 56.8148 388.414 57.3866 389.001C57.9893 389.588 58.2675 390.454 58.2675 391.52V396.357H56.4439V395.337C55.8875 396.002 55.0375 396.527 53.7857 396.527ZM54.3112 395.167C55.5475 395.167 56.4903 394.457 56.4903 393.421V392.865C56.0112 392.679 55.3775 392.54 54.6357 392.54C53.4303 392.54 52.7193 393.05 52.7193 393.9V393.931C52.7193 394.719 53.4148 395.167 54.3112 395.167ZM63.7444 394.256L65.8616 388.197H67.8089L64.5634 396.589C63.9144 398.258 63.188 398.877 61.8744 398.877C61.1016 398.877 60.5144 398.691 59.9425 398.382L60.5762 396.991C60.9162 397.177 61.2871 397.3 61.6734 397.3C62.1989 397.3 62.5234 397.068 62.8325 396.373L59.4325 388.197H61.4416L63.7444 394.256ZM69.4116 396.357V388.197H71.2816V389.434C71.807 388.707 72.5179 388.027 73.7698 388.027C74.9443 388.027 75.7789 388.599 76.2116 389.465C76.8607 388.599 77.7261 388.027 78.9625 388.027C80.7398 388.027 81.8216 389.156 81.8216 391.149V396.357H79.9516V391.721C79.9516 390.423 79.3489 389.727 78.2979 389.727C77.2779 389.727 76.5516 390.438 76.5516 391.752V396.357H74.6816V391.706C74.6816 390.438 74.0634 389.727 73.0279 389.727C71.9925 389.727 71.2816 390.5 71.2816 391.752V396.357H69.4116ZM87.8364 396.543C85.4719 396.543 83.6482 394.827 83.6482 392.308V392.277C83.6482 389.944 85.3019 388.027 87.6355 388.027C90.2319 388.027 91.5455 390.067 91.5455 392.417C91.5455 392.587 91.5301 392.757 91.5146 392.942H85.5182C85.7191 394.271 86.6619 395.013 87.8673 395.013C88.7791 395.013 89.4282 394.673 90.0773 394.039L91.1746 395.013C90.4019 395.94 89.3355 396.543 87.8364 396.543ZM85.5028 391.706H89.691C89.5673 390.5 88.8564 389.557 87.6201 389.557C86.4764 389.557 85.6728 390.438 85.5028 391.706ZM93.4235 396.357V388.197H95.2935V389.449C95.8189 388.692 96.5762 388.027 97.8435 388.027C99.6826 388.027 100.749 389.264 100.749 391.149V396.357H98.8789V391.721C98.8789 390.454 98.2453 389.727 97.1326 389.727C96.0508 389.727 95.2935 390.485 95.2935 391.752V396.357H93.4235ZM105.743 396.497C104.367 396.497 103.393 395.894 103.393 394.101V389.805H102.358V388.197H103.393V385.957H105.263V388.197H107.458V389.805H105.263V393.807C105.263 394.534 105.634 394.827 106.268 394.827C106.685 394.827 107.056 394.735 107.427 394.549V396.079C106.963 396.342 106.453 396.497 105.743 396.497ZM114.211 396.357V385.539H119.063C120.3 385.539 121.273 385.879 121.892 386.497C122.371 386.977 122.618 387.564 122.618 388.29V388.321C122.618 389.619 121.876 390.315 121.073 390.732C122.34 391.165 123.221 391.891 123.221 393.359V393.39C123.221 395.322 121.629 396.357 119.218 396.357H114.211ZM120.717 388.63V388.599C120.717 387.749 120.037 387.224 118.816 387.224H116.081V390.098H118.677C119.898 390.098 120.717 389.619 120.717 388.63ZM121.32 393.158C121.32 392.247 120.593 391.706 119.094 391.706H116.081V394.673H119.233C120.532 394.673 121.32 394.163 121.32 393.189V393.158ZM125.148 396.357V388.197H127.018V390.037C127.528 388.816 128.47 387.981 129.908 388.043V390.021H129.799C128.161 390.021 127.018 391.087 127.018 393.251V396.357H125.148ZM135 396.543C132.635 396.543 130.812 394.827 130.812 392.308V392.277C130.812 389.944 132.465 388.027 134.799 388.027C137.395 388.027 138.709 390.067 138.709 392.417C138.709 392.587 138.694 392.757 138.678 392.942H132.682C132.883 394.271 133.825 395.013 135.031 395.013C135.943 395.013 136.592 394.673 137.241 394.039L138.338 395.013C137.565 395.94 136.499 396.543 135 396.543ZM132.666 391.706H136.854C136.731 390.5 136.02 389.557 134.784 389.557C133.64 389.557 132.836 390.438 132.666 391.706ZM142.936 396.527C141.406 396.527 140.046 395.647 140.046 394.008V393.977C140.046 392.216 141.422 391.35 143.415 391.35C144.327 391.35 144.976 391.489 145.61 391.69V391.489C145.61 390.33 144.899 389.712 143.585 389.712C142.673 389.712 141.993 389.913 141.252 390.222L140.757 388.754C141.653 388.352 142.534 388.089 143.832 388.089C145.053 388.089 145.965 388.414 146.537 389.001C147.14 389.588 147.418 390.454 147.418 391.52V396.357H145.594V395.337C145.038 396.002 144.188 396.527 142.936 396.527ZM143.462 395.167C144.698 395.167 145.641 394.457 145.641 393.421V392.865C145.162 392.679 144.528 392.54 143.786 392.54C142.581 392.54 141.87 393.05 141.87 393.9V393.931C141.87 394.719 142.565 395.167 143.462 395.167ZM149.658 396.357V385.076H151.528V391.814L154.912 388.197H157.184L153.938 391.52L157.292 396.357H155.098L152.687 392.818L151.528 394.024V396.357H149.658ZM161.629 396.527C159.713 396.527 157.843 394.997 157.843 392.293V392.262C157.843 389.557 159.682 388.027 161.629 388.027C162.974 388.027 163.824 388.692 164.411 389.465V385.076H166.281V396.357H164.411V394.997C163.808 395.847 162.958 396.527 161.629 396.527ZM162.077 394.905C163.329 394.905 164.442 393.854 164.442 392.293V392.262C164.442 390.686 163.329 389.65 162.077 389.65C160.795 389.65 159.728 390.639 159.728 392.262V392.293C159.728 393.869 160.81 394.905 162.077 394.905ZM172.508 396.543C170.019 396.543 168.18 394.642 168.18 392.324V392.293C168.18 389.959 170.035 388.027 172.539 388.027C175.042 388.027 176.881 389.928 176.881 392.262V392.293C176.881 394.611 175.027 396.543 172.508 396.543ZM172.539 394.905C174.053 394.905 175.011 393.73 175.011 392.324V392.293C175.011 390.856 173.976 389.666 172.508 389.666C171.009 389.666 170.05 390.84 170.05 392.262V392.293C170.05 393.715 171.086 394.905 172.539 394.905ZM180.356 396.419L177.713 388.197H179.63L181.268 393.792L183.076 388.167H184.683L186.491 393.792L188.161 388.197H190.046L187.372 396.419H185.688L183.864 390.84L182.025 396.419H180.356ZM191.705 396.357V388.197H193.575V389.449C194.1 388.692 194.857 388.027 196.125 388.027C197.964 388.027 199.03 389.264 199.03 391.149V396.357H197.16V391.721C197.16 390.454 196.527 389.727 195.414 389.727C194.332 389.727 193.575 390.485 193.575 391.752V396.357H191.705Z" fill="#272727"/>
<path d="M49.7458 466.277H48.5218V469.084H47.3968L45.6411 466.277H42.7851V469.084H41.8702V466.277H40.6338V465.585H41.8702V463.879H40.6338V463.187H41.8702V460.429H43.0818L44.788 463.187H47.6069V460.429H48.5218V463.187H49.7458V463.879H48.5218V465.585H49.7458V466.277ZM42.7728 463.867V465.597H45.2702L44.1946 463.867H42.7728ZM45.1589 463.867L46.2346 465.597H47.6069V463.867H45.1589ZM42.7728 461.604V463.211H43.7866L42.7851 461.604H42.7728ZM47.5946 467.773H47.6069V466.253H46.6426L47.5946 467.773ZM54.0384 469.232C52.8021 469.232 51.7264 468.639 50.9475 467.86L51.5904 467.155C52.3446 467.885 53.173 468.342 54.0508 468.342C55.2872 468.342 56.1403 467.514 56.1403 466.426V466.401C56.1403 465.325 55.2501 464.584 53.989 464.584C53.2595 464.584 52.6784 464.806 52.1715 465.078L51.5163 464.645L51.7635 460.429H56.7461V461.332H52.6166L52.4312 464.101C52.9381 463.879 53.4203 463.718 54.1373 463.718C55.8188 463.718 57.1293 464.707 57.1293 466.364V466.389C57.1293 468.083 55.8435 469.232 54.0384 469.232ZM62.2764 469.232C60.0386 469.232 58.6291 467.205 58.6291 464.781V464.757C58.6291 462.333 60.0757 460.281 62.3011 460.281C64.5266 460.281 65.936 462.309 65.936 464.732V464.757C65.936 467.18 64.5018 469.232 62.2764 469.232ZM62.3011 468.342C63.9208 468.342 64.9222 466.673 64.9222 464.781V464.757C64.9222 462.865 63.8837 461.171 62.2764 461.171C60.6568 461.171 59.6429 462.828 59.6429 464.732V464.757C59.6429 466.648 60.6815 468.342 62.3011 468.342ZM67.1763 470.592L67.0279 470.16C67.6461 469.937 67.9057 469.616 67.8563 469.084H67.4112V467.786H68.5486V468.899C68.5486 469.9 68.1159 470.382 67.1763 470.592ZM73.662 469.232C71.4242 469.232 70.0148 467.205 70.0148 464.781V464.757C70.0148 462.333 71.4613 460.281 73.6868 460.281C75.9122 460.281 77.3217 462.309 77.3217 464.732V464.757C77.3217 467.18 75.8875 469.232 73.662 469.232ZM73.6868 468.342C75.3064 468.342 76.3079 466.673 76.3079 464.781V464.757C76.3079 462.865 75.2693 461.171 73.662 461.171C72.0424 461.171 71.0286 462.828 71.0286 464.732V464.757C71.0286 466.648 72.0671 468.342 73.6868 468.342ZM82.5001 469.232C80.2623 469.232 78.8528 467.205 78.8528 464.781V464.757C78.8528 462.333 80.2994 460.281 82.5248 460.281C84.7503 460.281 86.1597 462.309 86.1597 464.732V464.757C86.1597 467.18 84.7256 469.232 82.5001 469.232ZM82.5248 468.342C84.1445 468.342 85.1459 466.673 85.1459 464.781V464.757C85.1459 462.865 84.1074 461.171 82.5001 461.171C80.8805 461.171 79.8667 462.828 79.8667 464.732V464.757C79.8667 466.648 80.9052 468.342 82.5248 468.342ZM91.3382 469.232C89.1004 469.232 87.6909 467.205 87.6909 464.781V464.757C87.6909 462.333 89.1375 460.281 91.3629 460.281C93.5884 460.281 94.9978 462.309 94.9978 464.732V464.757C94.9978 467.18 93.5636 469.232 91.3382 469.232ZM91.3629 468.342C92.9825 468.342 93.984 466.673 93.984 464.781V464.757C93.984 462.865 92.9455 461.171 91.3382 461.171C89.7185 461.171 88.7047 462.828 88.7047 464.732V464.757C88.7047 466.648 89.7433 468.342 91.3629 468.342Z" fill="#272727"/>
<path d="M49.7458 421.459H48.5218V424.266H47.3968L45.6411 421.459H42.7851V424.266H41.8702V421.459H40.6338V420.767H41.8702V419.061H40.6338V418.368H41.8702V415.611H43.0818L44.788 418.368H47.6069V415.611H48.5218V418.368H49.7458V419.061H48.5218V420.767H49.7458V421.459ZM42.7728 419.048V420.779H45.2702L44.1946 419.048H42.7728ZM45.1589 419.048L46.2346 420.779H47.6069V419.048H45.1589ZM42.7728 416.786V418.393H43.7866L42.7851 416.786H42.7728ZM47.5946 422.955H47.6069V421.434H46.6426L47.5946 422.955ZM54.1373 424.414C52.6908 424.414 51.6152 423.783 50.9104 422.869L51.6275 422.238C52.2828 423.054 53.0864 423.524 54.1497 423.524C55.2006 423.524 56.0413 422.856 56.0413 421.842V421.818C56.0413 420.742 55.0399 420.149 53.6181 420.149H53.0617L52.8639 419.567L55.5963 416.489H51.3679V415.611H56.8944V416.328L54.1744 419.345C55.6828 419.469 57.0304 420.198 57.0304 421.781V421.805C57.0304 423.351 55.7446 424.414 54.1373 424.414ZM61.9917 424.414C61.0397 424.414 60.2608 424.08 59.7168 423.536C59.0245 422.844 58.6288 421.954 58.6288 420.186V420.161C58.6288 417.527 59.9641 415.463 62.2266 415.463C63.2652 415.463 64.0317 415.834 64.7859 416.452L64.2172 417.206C63.5743 416.662 62.9685 416.353 62.1772 416.353C60.5081 416.353 59.6303 418.109 59.6303 420.062V420.186C60.199 419.357 60.9779 418.85 62.103 418.85C63.7103 418.85 65.095 419.889 65.095 421.509V421.533C65.095 423.202 63.7474 424.414 61.9917 424.414ZM62.0041 423.549C63.2776 423.549 64.0936 422.671 64.0936 421.57V421.546C64.0936 420.482 63.2281 419.691 61.9794 419.691C60.6812 419.691 59.8157 420.618 59.8157 421.583V421.607C59.8157 422.708 60.7306 423.549 62.0041 423.549ZM66.5967 425.774L66.4483 425.341C67.0665 425.119 67.3262 424.797 67.2767 424.266H66.8316V422.967H67.9691V424.08C67.9691 425.082 67.5363 425.564 66.5967 425.774ZM73.0825 424.414C70.8447 424.414 69.4352 422.386 69.4352 419.963V419.938C69.4352 417.515 70.8818 415.463 73.1072 415.463C75.3327 415.463 76.7421 417.49 76.7421 419.914V419.938C76.7421 422.362 75.308 424.414 73.0825 424.414ZM73.1072 423.524C74.7269 423.524 75.7283 421.855 75.7283 419.963V419.938C75.7283 418.047 74.6898 416.353 73.0825 416.353C71.4629 416.353 70.449 418.01 70.449 419.914V419.938C70.449 421.83 71.4876 423.524 73.1072 423.524ZM81.9206 424.414C79.6827 424.414 78.2733 422.386 78.2733 419.963V419.938C78.2733 417.515 79.7198 415.463 81.9453 415.463C84.1707 415.463 85.5802 417.49 85.5802 419.914V419.938C85.5802 422.362 84.146 424.414 81.9206 424.414ZM81.9453 423.524C83.5649 423.524 84.5664 421.855 84.5664 419.963V419.938C84.5664 418.047 83.5278 416.353 81.9206 416.353C80.3009 416.353 79.2871 418.01 79.2871 419.914V419.938C79.2871 421.83 80.3257 423.524 81.9453 423.524ZM90.7586 424.414C88.5208 424.414 87.1114 422.386 87.1114 419.963V419.938C87.1114 417.515 88.5579 415.463 90.7834 415.463C93.0088 415.463 94.4183 417.49 94.4183 419.914V419.938C94.4183 422.362 92.9841 424.414 90.7586 424.414ZM90.7834 423.524C92.403 423.524 93.4045 421.855 93.4045 419.963V419.938C93.4045 418.047 92.3659 416.353 90.7586 416.353C89.139 416.353 88.1252 418.01 88.1252 419.914V419.938C88.1252 421.83 89.1637 423.524 90.7834 423.524ZM95.6585 425.774L95.5101 425.341C96.1283 425.119 96.388 424.797 96.3385 424.266H95.8934V422.967H97.0309V424.08C97.0309 425.082 96.5981 425.564 95.6585 425.774ZM102.144 424.414C99.9065 424.414 98.497 422.386 98.497 419.963V419.938C98.497 417.515 99.9436 415.463 102.169 415.463C104.394 415.463 105.804 417.49 105.804 419.914V419.938C105.804 422.362 104.37 424.414 102.144 424.414ZM102.169 423.524C103.789 423.524 104.79 421.855 104.79 419.963V419.938C104.79 418.047 103.752 416.353 102.144 416.353C100.525 416.353 99.5108 418.01 99.5108 419.914V419.938C99.5108 421.83 100.549 423.524 102.169 423.524ZM110.982 424.414C108.745 424.414 107.335 422.386 107.335 419.963V419.938C107.335 417.515 108.782 415.463 111.007 415.463C113.233 415.463 114.642 417.49 114.642 419.914V419.938C114.642 422.362 113.208 424.414 110.982 424.414ZM111.007 423.524C112.627 423.524 113.628 421.855 113.628 419.963V419.938C113.628 418.047 112.59 416.353 110.982 416.353C109.363 416.353 108.349 418.01 108.349 419.914V419.938C108.349 421.83 109.387 423.524 111.007 423.524ZM119.82 424.414C117.583 424.414 116.173 422.386 116.173 419.963V419.938C116.173 417.515 117.62 415.463 119.845 415.463C122.071 415.463 123.48 417.49 123.48 419.914V419.938C123.48 422.362 122.046 424.414 119.82 424.414ZM119.845 423.524C121.465 423.524 122.466 421.855 122.466 419.963V419.938C122.466 418.047 121.428 416.353 119.82 416.353C118.201 416.353 117.187 418.01 117.187 419.914V419.938C117.187 421.83 118.226 423.524 119.845 423.524Z" fill="#272727"/>
<path d="M41.0728 439.812V433.322H41.8053V439.812H41.0728ZM43.5858 439.812V435.018H44.2998V435.853C44.6151 435.334 45.1158 434.917 45.9411 434.917C47.1002 434.917 47.7771 435.695 47.7771 436.836V439.812H47.0631V437.012C47.0631 436.122 46.5809 435.566 45.7371 435.566C44.9118 435.566 44.2998 436.168 44.2998 437.068V439.812H43.5858ZM49.3183 433.971V433.182H50.1343V433.971H49.3183ZM49.3647 439.812V435.018H50.0787V439.812H49.3647ZM53.3398 439.896C52.5702 439.896 51.986 439.516 51.986 438.542V435.649H51.3184V435.018H51.986V433.572H52.7V435.018H54.2208V435.649H52.7V438.449C52.7 439.034 53.0246 439.247 53.5068 439.247C53.7478 439.247 53.9518 439.201 54.2022 439.08V439.692C53.9518 439.822 53.6829 439.896 53.3398 439.896ZM55.5031 433.971V433.182H56.3191V433.971H55.5031ZM55.5495 439.812V435.018H56.2635V439.812H55.5495ZM59.3485 439.915C58.4583 439.915 57.5589 439.404 57.5589 438.422V438.403C57.5589 437.392 58.3934 436.855 59.6081 436.855C60.2201 436.855 60.656 436.938 61.0825 437.058V436.892C61.0825 436.029 60.554 435.584 59.6545 435.584C59.0889 435.584 58.6438 435.732 58.1987 435.936L57.9854 435.352C58.514 435.111 59.0332 434.954 59.7287 434.954C60.4056 434.954 60.9249 435.13 61.2772 435.482C61.6018 435.807 61.7687 436.27 61.7687 436.882V439.812H61.0825V439.089C60.7487 439.525 60.1923 439.915 59.3485 439.915ZM59.4876 439.349C60.3685 439.349 61.0918 438.811 61.0918 438.051V437.587C60.7394 437.485 60.2665 437.383 59.6823 437.383C58.7829 437.383 58.2821 437.772 58.2821 438.375V438.394C58.2821 438.996 58.8385 439.349 59.4876 439.349ZM63.3553 439.812V433.043H64.0693V439.812H63.3553ZM68.6268 439.812V433.322H70.8801C72.9201 433.322 74.3295 434.722 74.3295 436.548V436.567C74.3295 438.394 72.9201 439.812 70.8801 439.812H68.6268ZM70.8801 433.998H69.3594V439.136H70.8801C72.5214 439.136 73.5692 438.023 73.5692 436.586V436.567C73.5692 435.13 72.5214 433.998 70.8801 433.998ZM77.8553 439.924C76.5385 439.924 75.4629 438.913 75.4629 437.429V437.411C75.4629 436.029 76.4365 434.917 77.7625 434.917C79.1813 434.917 79.9973 436.048 79.9973 437.448C79.9973 437.541 79.9973 437.596 79.988 437.68H76.1862C76.2882 438.718 77.0207 439.302 77.8738 439.302C78.5322 439.302 78.9958 439.034 79.3853 438.626L79.8304 439.024C79.3482 439.562 78.764 439.924 77.8553 439.924ZM76.1862 437.151H79.274C79.1998 436.28 78.6991 435.519 77.744 435.519C76.9095 435.519 76.2789 436.215 76.1862 437.151ZM81.2472 441.296V435.018H81.9612V435.983C82.3507 435.408 82.9163 434.917 83.7972 434.917C84.947 434.917 86.0876 435.825 86.0876 437.402V437.42C86.0876 438.987 84.9563 439.915 83.7972 439.915C82.907 439.915 82.3321 439.432 81.9612 438.894V441.296H81.2472ZM83.6674 439.275C84.5947 439.275 85.355 438.589 85.355 437.429V437.411C85.355 436.28 84.5761 435.556 83.6674 435.556C82.7772 435.556 81.9334 436.307 81.9334 437.402V437.42C81.9334 438.533 82.7772 439.275 83.6674 439.275ZM89.5932 439.924C88.156 439.924 87.1081 438.792 87.1081 437.439V437.42C87.1081 436.066 88.1652 434.917 89.6118 434.917C91.0491 434.917 92.1061 436.048 92.1061 437.402V437.42C92.1061 438.774 91.0398 439.924 89.5932 439.924ZM89.6118 439.284C90.6503 439.284 91.3736 438.449 91.3736 437.439V437.42C91.3736 436.391 90.604 435.547 89.5932 435.547C88.5547 435.547 87.8407 436.391 87.8407 437.402V437.42C87.8407 438.449 88.6011 439.284 89.6118 439.284ZM94.9852 439.905C94.299 439.905 93.5386 439.636 93.0008 439.201L93.3625 438.69C93.8817 439.08 94.4566 439.302 95.0223 439.302C95.5972 439.302 96.0145 439.006 96.0145 438.542V438.524C96.0145 438.041 95.4488 437.856 94.8183 437.68C94.0672 437.466 93.2326 437.207 93.2326 436.326V436.307C93.2326 435.482 93.9188 434.935 94.8646 434.935C95.4488 434.935 96.0979 435.139 96.5894 435.464L96.2648 436.001C95.8197 435.714 95.3097 435.538 94.8461 435.538C94.2805 435.538 93.9188 435.834 93.9188 436.233V436.252C93.9188 436.706 94.5123 436.882 95.1521 437.077C95.8939 437.3 96.6914 437.587 96.6914 438.449V438.468C96.6914 439.377 95.9403 439.905 94.9852 439.905ZM98.0363 433.971V433.182H98.8523V433.971H98.0363ZM98.0827 439.812V435.018H98.7967V439.812H98.0827ZM102.058 439.896C101.288 439.896 100.704 439.516 100.704 438.542V435.649H100.036V435.018H100.704V433.572H101.418V435.018H102.939V435.649H101.418V438.449C101.418 439.034 101.743 439.247 102.225 439.247C102.466 439.247 102.67 439.201 102.92 439.08V439.692C102.67 439.822 102.401 439.896 102.058 439.896Z" fill="#767676"/>
</g>
<rect x="21.9332" y="108.425" width="302.136" height="64.9091" rx="15.0682" fill="#F7ECD8"/>
<rect x="21.9332" y="108.425" width="302.136" height="64.9091" rx="15.0682" stroke="#D8D8D8" stroke-width="0.772727"/>
<path d="M84.3369 136.584V129.011H87.7338C88.5993 129.011 89.2808 129.249 89.7136 129.682C90.0489 130.017 90.222 130.428 90.222 130.937V130.959C90.222 131.867 89.7027 132.354 89.1402 132.646C90.0273 132.949 90.6439 133.458 90.6439 134.485V134.507C90.6439 135.859 89.5296 136.584 87.842 136.584H84.3369ZM88.8914 131.175V131.153C88.8914 130.558 88.4154 130.19 87.5607 130.19H85.6459V132.203H87.4634C88.318 132.203 88.8914 131.867 88.8914 131.175ZM89.3133 134.345C89.3133 133.706 88.8048 133.328 87.7555 133.328H85.6459V135.405H87.8528C88.7616 135.405 89.3133 135.048 89.3133 134.366V134.345ZM93.6371 136.703C92.5661 136.703 91.6141 136.086 91.6141 134.94V134.918C91.6141 133.685 92.5769 133.079 93.9725 133.079C94.6107 133.079 95.0651 133.176 95.5086 133.317V133.176C95.5086 132.365 95.011 131.932 94.0915 131.932C93.4532 131.932 92.9772 132.073 92.4579 132.289L92.1117 131.261C92.7392 130.98 93.3558 130.796 94.2645 130.796C95.1192 130.796 95.7575 131.023 96.1577 131.435C96.5796 131.846 96.7744 132.451 96.7744 133.198V136.584H95.4978V135.87C95.1084 136.335 94.5134 136.703 93.6371 136.703ZM94.0049 135.751C94.8704 135.751 95.5303 135.253 95.5303 134.529V134.139C95.1949 134.009 94.7514 133.912 94.2321 133.912C93.3883 133.912 92.8906 134.269 92.8906 134.864V134.886C92.8906 135.437 93.3775 135.751 94.0049 135.751ZM98.3421 136.584V130.872H99.6511V131.748C100.019 131.218 100.549 130.753 101.436 130.753C102.723 130.753 103.47 131.618 103.47 132.938V136.584H102.161V133.339C102.161 132.451 101.717 131.943 100.938 131.943C100.181 131.943 99.6511 132.473 99.6511 133.36V136.584H98.3421ZM105.051 136.584V128.687H106.36V133.403L108.729 130.872H110.319L108.047 133.198L110.395 136.584H108.859L107.171 134.107L106.36 134.95V136.584H105.051ZM116.603 136.584V130.245H114.201V129.011H120.346V130.245H117.944V136.584H116.603ZM120.824 136.584V130.872H122.133V132.159C122.49 131.305 123.15 130.721 124.156 130.764V132.149H124.08C122.933 132.149 122.133 132.895 122.133 134.41V136.584H120.824ZM126.662 136.703C125.591 136.703 124.639 136.086 124.639 134.94V134.918C124.639 133.685 125.602 133.079 126.997 133.079C127.636 133.079 128.09 133.176 128.534 133.317V133.176C128.534 132.365 128.036 131.932 127.116 131.932C126.478 131.932 126.002 132.073 125.483 132.289L125.137 131.261C125.764 130.98 126.381 130.796 127.29 130.796C128.144 130.796 128.782 131.023 129.183 131.435C129.605 131.846 129.799 132.451 129.799 133.198V136.584H128.523V135.87C128.133 136.335 127.538 136.703 126.662 136.703ZM127.03 135.751C127.895 135.751 128.555 135.253 128.555 134.529V134.139C128.22 134.009 127.776 133.912 127.257 133.912C126.413 133.912 125.916 134.269 125.916 134.864V134.886C125.916 135.437 126.402 135.751 127.03 135.751ZM131.367 136.584V130.872H132.676V131.748C133.044 131.218 133.574 130.753 134.461 130.753C135.748 130.753 136.495 131.618 136.495 132.938V136.584H135.186V133.339C135.186 132.451 134.742 131.943 133.963 131.943C133.206 131.943 132.676 132.473 132.676 133.36V136.584H131.367ZM140.034 136.692C139.222 136.692 138.324 136.4 137.61 135.838L138.195 134.95C138.822 135.416 139.482 135.654 140.066 135.654C140.629 135.654 140.953 135.416 140.953 135.037V135.015C140.953 134.572 140.347 134.42 139.677 134.215C138.833 133.977 137.892 133.631 137.892 132.538V132.516C137.892 131.435 138.79 130.775 139.926 130.775C140.64 130.775 141.418 131.023 142.024 131.424L141.505 132.354C140.953 132.019 140.369 131.813 139.893 131.813C139.385 131.813 139.093 132.051 139.093 132.376V132.397C139.093 132.819 139.709 132.992 140.38 133.209C141.213 133.468 142.154 133.847 142.154 134.875V134.896C142.154 136.097 141.224 136.692 140.034 136.692ZM143.787 136.584V131.997H143.063V130.904H143.787V130.483C143.787 129.855 143.95 129.379 144.253 129.076C144.555 128.773 144.977 128.622 145.54 128.622C145.994 128.622 146.308 128.687 146.6 128.773V129.877C146.34 129.79 146.113 129.736 145.832 129.736C145.334 129.736 145.075 130.007 145.075 130.602V130.915H146.589V131.997H145.096V136.584H143.787ZM150.075 136.714C148.42 136.714 147.143 135.513 147.143 133.75V133.728C147.143 132.094 148.301 130.753 149.934 130.753C151.752 130.753 152.671 132.181 152.671 133.825C152.671 133.944 152.661 134.063 152.65 134.193H148.452C148.593 135.124 149.253 135.643 150.097 135.643C150.735 135.643 151.189 135.405 151.644 134.961L152.412 135.643C151.871 136.292 151.124 136.714 150.075 136.714ZM148.441 133.328H151.373C151.287 132.484 150.789 131.824 149.924 131.824C149.123 131.824 148.56 132.441 148.441 133.328ZM153.986 136.584V130.872H155.295V132.159C155.652 131.305 156.312 130.721 157.318 130.764V132.149H157.242C156.096 132.149 155.295 132.895 155.295 134.41V136.584H153.986Z" fill="#272727"/>
<path d="M84.2813 151.584V145.093H88.9455V145.77H85.0138V148.088H88.5282V148.756H85.0138V151.584H84.2813ZM90.246 151.584V146.79H90.96V148.042C91.3123 147.244 92.0078 146.669 92.9165 146.707V147.476H92.8609C91.8131 147.476 90.96 148.227 90.96 149.674V151.584H90.246ZM95.984 151.695C94.5468 151.695 93.499 150.564 93.499 149.21V149.192C93.499 147.838 94.556 146.688 96.0026 146.688C97.4399 146.688 98.497 147.819 98.497 149.173V149.192C98.497 150.545 97.4306 151.695 95.984 151.695ZM96.0026 151.055C97.0411 151.055 97.7644 150.221 97.7644 149.21V149.192C97.7644 148.162 96.9948 147.319 95.984 147.319C94.9455 147.319 94.2315 148.162 94.2315 149.173V149.192C94.2315 150.221 94.9919 151.055 96.0026 151.055ZM99.7904 151.584V146.79H100.504V147.597C100.82 147.124 101.246 146.688 102.053 146.688C102.832 146.688 103.333 147.105 103.592 147.643C103.935 147.115 104.445 146.688 105.28 146.688C106.383 146.688 107.06 147.43 107.06 148.617V151.584H106.346V148.784C106.346 147.856 105.883 147.337 105.104 147.337C104.38 147.337 103.787 147.875 103.787 148.821V151.584H103.073V148.765C103.073 147.866 102.6 147.337 101.84 147.337C101.079 147.337 100.504 147.968 100.504 148.849V151.584H99.7904ZM113.44 150.787L114.979 146.79H115.739L113.727 151.742C113.319 152.734 112.855 153.095 112.132 153.095C111.733 153.095 111.437 153.012 111.112 152.854L111.353 152.289C111.585 152.409 111.798 152.465 112.104 152.465C112.531 152.465 112.8 152.242 113.087 151.565L110.908 146.79H111.696L113.44 150.787ZM118.776 151.695C117.339 151.695 116.291 150.564 116.291 149.21V149.192C116.291 147.838 117.348 146.688 118.795 146.688C120.232 146.688 121.289 147.819 121.289 149.173V149.192C121.289 150.545 120.223 151.695 118.776 151.695ZM118.795 151.055C119.834 151.055 120.557 150.221 120.557 149.21V149.192C120.557 148.162 119.787 147.319 118.776 147.319C117.738 147.319 117.024 148.162 117.024 149.173V149.192C117.024 150.221 117.784 151.055 118.795 151.055ZM124.345 151.686C123.186 151.686 122.509 150.907 122.509 149.767V146.79H123.223V149.59C123.223 150.481 123.705 151.037 124.549 151.037C125.365 151.037 125.986 150.434 125.986 149.535V146.79H126.691V151.584H125.986V150.749C125.661 151.269 125.17 151.686 124.345 151.686ZM128.297 151.584V146.79H129.011V148.042C129.363 147.244 130.059 146.669 130.967 146.707V147.476H130.912C129.864 147.476 129.011 148.227 129.011 149.674V151.584H128.297ZM137.385 151.686C136.495 151.686 135.92 151.204 135.549 150.666V151.584H134.835V144.815H135.549V147.754C135.938 147.179 136.504 146.688 137.385 146.688C138.535 146.688 139.675 147.597 139.675 149.173V149.192C139.675 150.759 138.544 151.686 137.385 151.686ZM137.255 151.046C138.182 151.046 138.943 150.36 138.943 149.201V149.182C138.943 148.051 138.164 147.328 137.255 147.328C136.365 147.328 135.521 148.079 135.521 149.173V149.192C135.521 150.304 136.365 151.046 137.255 151.046ZM142.42 151.686C141.53 151.686 140.631 151.176 140.631 150.193V150.175C140.631 149.164 141.465 148.626 142.68 148.626C143.292 148.626 143.728 148.709 144.154 148.83V148.663C144.154 147.801 143.626 147.356 142.726 147.356C142.161 147.356 141.716 147.504 141.271 147.708L141.057 147.124C141.586 146.883 142.105 146.725 142.801 146.725C143.478 146.725 143.997 146.901 144.349 147.254C144.674 147.578 144.841 148.042 144.841 148.654V151.584H144.154V150.861C143.821 151.297 143.264 151.686 142.42 151.686ZM142.56 151.12C143.44 151.12 144.164 150.583 144.164 149.822V149.359C143.811 149.257 143.338 149.155 142.754 149.155C141.855 149.155 141.354 149.544 141.354 150.147V150.165C141.354 150.768 141.91 151.12 142.56 151.12ZM146.362 151.584V146.79H147.076V147.625C147.392 147.105 147.892 146.688 148.718 146.688C149.877 146.688 150.554 147.467 150.554 148.607V151.584H149.84V148.784C149.84 147.893 149.357 147.337 148.514 147.337C147.688 147.337 147.076 147.94 147.076 148.839V151.584H146.362ZM152.076 151.584V144.815H152.79V149.488L155.377 146.79H156.267L154.255 148.849L156.332 151.584H155.479L153.764 149.349L152.79 150.332V151.584H152.076ZM161.564 151.686C160.673 151.686 159.774 151.176 159.774 150.193V150.175C159.774 149.164 160.608 148.626 161.823 148.626C162.435 148.626 162.871 148.709 163.298 148.83V148.663C163.298 147.801 162.769 147.356 161.87 147.356C161.304 147.356 160.859 147.504 160.414 147.708L160.2 147.124C160.729 146.883 161.248 146.725 161.944 146.725C162.621 146.725 163.14 146.901 163.492 147.254C163.817 147.578 163.984 148.042 163.984 148.654V151.584H163.298V150.861C162.964 151.297 162.407 151.686 161.564 151.686ZM161.703 151.12C162.584 151.12 163.307 150.583 163.307 149.822V149.359C162.954 149.257 162.482 149.155 161.897 149.155C160.998 149.155 160.497 149.544 160.497 150.147V150.165C160.497 150.768 161.054 151.12 161.703 151.12ZM165.505 153.068V146.79H166.219V147.754C166.609 147.179 167.174 146.688 168.055 146.688C169.205 146.688 170.346 147.597 170.346 149.173V149.192C170.346 150.759 169.214 151.686 168.055 151.686C167.165 151.686 166.59 151.204 166.219 150.666V153.068H165.505ZM167.926 151.046C168.853 151.046 169.613 150.36 169.613 149.201V149.182C169.613 148.051 168.834 147.328 167.926 147.328C167.035 147.328 166.192 148.079 166.192 149.173V149.192C166.192 150.304 167.035 151.046 167.926 151.046ZM171.663 153.068V146.79H172.377V147.754C172.766 147.179 173.332 146.688 174.213 146.688C175.363 146.688 176.503 147.597 176.503 149.173V149.192C176.503 150.759 175.372 151.686 174.213 151.686C173.323 151.686 172.748 151.204 172.377 150.666V153.068H171.663ZM174.083 151.046C175.01 151.046 175.771 150.36 175.771 149.201V149.182C175.771 148.051 174.992 147.328 174.083 147.328C173.193 147.328 172.349 148.079 172.349 149.173V149.192C172.349 150.304 173.193 151.046 174.083 151.046ZM182.789 151.695C181.352 151.695 180.304 150.564 180.304 149.21V149.192C180.304 147.838 181.361 146.688 182.808 146.688C184.245 146.688 185.302 147.819 185.302 149.173V149.192C185.302 150.545 184.236 151.695 182.789 151.695ZM182.808 151.055C183.846 151.055 184.569 150.221 184.569 149.21V149.192C184.569 148.162 183.8 147.319 182.789 147.319C181.751 147.319 181.037 148.162 181.037 149.173V149.192C181.037 150.221 181.797 151.055 182.808 151.055ZM186.595 151.584V146.79H187.309V148.042C187.662 147.244 188.357 146.669 189.266 146.707V147.476H189.21C188.162 147.476 187.309 148.227 187.309 149.674V151.584H186.595ZM193.152 145.742V144.954H193.968V145.742H193.152ZM193.198 151.584V146.79H193.912V151.584H193.198ZM195.569 151.584V146.79H196.283V147.625C196.599 147.105 197.099 146.688 197.925 146.688C199.084 146.688 199.761 147.467 199.761 148.607V151.584H199.047V148.784C199.047 147.893 198.564 147.337 197.721 147.337C196.895 147.337 196.283 147.94 196.283 148.839V151.584H195.569ZM202.887 151.667C202.118 151.667 201.534 151.287 201.534 150.314V147.421H200.866V146.79H201.534V145.343H202.248V146.79H203.768V147.421H202.248V150.221C202.248 150.805 202.572 151.018 203.054 151.018C203.295 151.018 203.499 150.972 203.75 150.851V151.463C203.499 151.593 203.231 151.667 202.887 151.667ZM206.992 151.695C205.675 151.695 204.6 150.685 204.6 149.201V149.182C204.6 147.801 205.573 146.688 206.899 146.688C208.318 146.688 209.134 147.819 209.134 149.219C209.134 149.312 209.134 149.368 209.125 149.451H205.323C205.425 150.49 206.157 151.074 207.011 151.074C207.669 151.074 208.133 150.805 208.522 150.397L208.967 150.796C208.485 151.334 207.901 151.695 206.992 151.695ZM205.323 148.923H208.411C208.337 148.051 207.836 147.291 206.881 147.291C206.046 147.291 205.416 147.986 205.323 148.923ZM210.384 151.584V146.79H211.098V148.042C211.45 147.244 212.146 146.669 213.054 146.707V147.476H212.999C211.951 147.476 211.098 148.227 211.098 149.674V151.584H210.384ZM214.142 151.584V146.79H214.856V147.625C215.171 147.105 215.672 146.688 216.497 146.688C217.656 146.688 218.333 147.467 218.333 148.607V151.584H217.619V148.784C217.619 147.893 217.137 147.337 216.293 147.337C215.468 147.337 214.856 147.94 214.856 148.839V151.584H214.142ZM221.952 151.695C220.635 151.695 219.559 150.685 219.559 149.201V149.182C219.559 147.801 220.533 146.688 221.859 146.688C223.278 146.688 224.094 147.819 224.094 149.219C224.094 149.312 224.094 149.368 224.084 149.451H220.282C220.384 150.49 221.117 151.074 221.97 151.074C222.628 151.074 223.092 150.805 223.482 150.397L223.927 150.796C223.444 151.334 222.86 151.695 221.952 151.695ZM220.282 148.923H223.37C223.296 148.051 222.795 147.291 221.84 147.291C221.006 147.291 220.375 147.986 220.282 148.923ZM226.948 151.667C226.178 151.667 225.594 151.287 225.594 150.314V147.421H224.926V146.79H225.594V145.343H226.308V146.79H227.829V147.421H226.308V150.221C226.308 150.805 226.632 151.018 227.115 151.018C227.356 151.018 227.56 150.972 227.81 150.851V151.463C227.56 151.593 227.291 151.667 226.948 151.667ZM234.422 151.686C233.532 151.686 232.957 151.204 232.586 150.666V151.584H231.872V144.815H232.586V147.754C232.976 147.179 233.541 146.688 234.422 146.688C235.572 146.688 236.713 147.597 236.713 149.173V149.192C236.713 150.759 235.581 151.686 234.422 151.686ZM234.293 151.046C235.22 151.046 235.98 150.36 235.98 149.201V149.182C235.98 148.051 235.201 147.328 234.293 147.328C233.402 147.328 232.559 148.079 232.559 149.173V149.192C232.559 150.304 233.402 151.046 234.293 151.046ZM239.458 151.686C238.568 151.686 237.668 151.176 237.668 150.193V150.175C237.668 149.164 238.503 148.626 239.718 148.626C240.33 148.626 240.765 148.709 241.192 148.83V148.663C241.192 147.801 240.663 147.356 239.764 147.356C239.198 147.356 238.753 147.504 238.308 147.708L238.095 147.124C238.623 146.883 239.143 146.725 239.838 146.725C240.515 146.725 241.034 146.901 241.387 147.254C241.711 147.578 241.878 148.042 241.878 148.654V151.584H241.192V150.861C240.858 151.297 240.302 151.686 239.458 151.686ZM239.597 151.12C240.478 151.12 241.201 150.583 241.201 149.822V149.359C240.849 149.257 240.376 149.155 239.792 149.155C238.892 149.155 238.392 149.544 238.392 150.147V150.165C238.392 150.768 238.948 151.12 239.597 151.12ZM243.4 151.584V146.79H244.114V147.625C244.429 147.105 244.93 146.688 245.755 146.688C246.914 146.688 247.591 147.467 247.591 148.607V151.584H246.877V148.784C246.877 147.893 246.395 147.337 245.551 147.337C244.726 147.337 244.114 147.94 244.114 148.839V151.584H243.4ZM249.114 151.584V144.815H249.828V149.488L252.415 146.79H253.305L251.293 148.849L253.37 151.584H252.517L250.801 149.349L249.828 150.332V151.584H249.114Z" fill="#767676"/>
<rect x="43.9531" y="126.584" width="27.8182" height="27.8182" rx="13.9091" fill="#E7FFCC"/>
<g clip-path="url(#clip2_3910_3307)">
<path fill-rule="evenodd" clip-rule="evenodd" d="M65.4314 132.927C65.5071 133.003 65.5592 133.099 65.5813 133.203C65.6035 133.308 65.5947 133.417 65.5562 133.517L60.0367 147.867C59.9976 147.969 59.9294 148.057 59.8406 148.119C59.7518 148.182 59.6465 148.218 59.5377 148.221C59.4289 148.224 59.3217 148.195 59.2294 148.137C59.1371 148.08 59.0638 147.996 59.0189 147.897L56.7106 142.819L60.1062 139.423C60.2525 139.266 60.3321 139.058 60.3283 138.843C60.3245 138.629 60.2376 138.424 60.0859 138.273C59.9342 138.121 59.7296 138.034 59.5151 138.03C59.3006 138.027 59.093 138.106 58.9361 138.252L55.5394 141.648L50.4615 139.341C50.3621 139.296 50.2782 139.223 50.2205 139.13C50.1627 139.038 50.1337 138.93 50.137 138.821C50.1403 138.712 50.1758 138.606 50.2391 138.518C50.3023 138.429 50.3905 138.361 50.4924 138.322L64.843 132.802C64.9427 132.764 65.0513 132.755 65.1557 132.778C65.2601 132.8 65.3559 132.852 65.4314 132.927Z" fill="#79B833"/>
</g>
<path d="M44.2564 226.596C43.1931 226.596 42.4266 226.262 41.8455 225.681C41.1902 225.025 40.7946 224.123 40.7946 222.38V222.355C40.7946 219.709 42.0557 217.644 44.5037 217.644C45.6288 217.644 46.3953 218.003 47.1495 218.609L46.3335 219.783C45.7277 219.313 45.2208 219.029 44.4542 219.029C42.9458 219.029 42.4018 220.599 42.3771 221.786C42.884 221.255 43.5269 220.908 44.4542 220.908C46.1233 220.908 47.4709 221.897 47.4709 223.628V223.653C47.4709 225.372 46.0738 226.596 44.2564 226.596ZM44.2193 225.273C45.2949 225.273 45.9502 224.605 45.9502 223.715V223.69C45.9502 222.825 45.2578 222.182 44.1822 222.182C43.1066 222.182 42.4266 222.874 42.4266 223.703V223.727C42.4266 224.605 43.1437 225.273 44.2193 225.273ZM51.9278 226.596C50.4195 226.596 49.3438 225.965 48.6144 225.075L49.6777 224.086C50.2958 224.815 50.9882 225.223 51.9526 225.223C52.8057 225.223 53.4486 224.704 53.4486 223.913V223.888C53.4486 223.035 52.6697 222.553 51.458 222.553H50.7533L50.506 221.601L52.8427 219.116H49.0966V217.793H54.8209V218.93L52.41 221.403C53.7206 221.564 54.9569 222.231 54.9569 223.826V223.851C54.9569 225.446 53.7329 226.596 51.9278 226.596ZM59.5706 226.596C58.0622 226.596 56.9866 225.965 56.2571 225.075L57.3204 224.086C57.9386 224.815 58.631 225.223 59.5953 225.223C60.4484 225.223 61.0913 224.704 61.0913 223.913V223.888C61.0913 223.035 60.3124 222.553 59.1008 222.553H58.396L58.1488 221.601L60.4855 219.116H56.7393V217.793H62.4637V218.93L60.0528 221.403C61.3633 221.564 62.5997 222.231 62.5997 223.826V223.851C62.5997 225.446 61.3757 226.596 59.5706 226.596ZM67.5348 226.596C66.4715 226.596 65.705 226.262 65.1239 225.681C64.4686 225.025 64.073 224.123 64.073 222.38V222.355C64.073 219.709 65.3341 217.644 67.7821 217.644C68.9072 217.644 69.6737 218.003 70.4279 218.609L69.6119 219.783C69.0061 219.313 68.4992 219.029 67.7326 219.029C66.2243 219.029 65.6803 220.599 65.6555 221.786C66.1624 221.255 66.8053 220.908 67.7326 220.908C69.4017 220.908 70.7493 221.897 70.7493 223.628V223.653C70.7493 225.372 69.3523 226.596 67.5348 226.596ZM67.4977 225.273C68.5733 225.273 69.2286 224.605 69.2286 223.715V223.69C69.2286 222.825 68.5363 222.182 67.4606 222.182C66.385 222.182 65.705 222.874 65.705 223.703V223.727C65.705 224.605 66.4221 225.273 67.4977 225.273ZM75.2062 226.596C73.6979 226.596 72.6222 225.965 71.8928 225.075L72.9561 224.086C73.5742 224.815 74.2666 225.223 75.231 225.223C76.0841 225.223 76.727 224.704 76.727 223.913V223.888C76.727 223.035 75.9481 222.553 74.7364 222.553H74.0317L73.7844 221.601L76.1211 219.116H72.375V217.793H78.0993V218.93L75.6884 221.403C76.999 221.564 78.2353 222.231 78.2353 223.826V223.851C78.2353 225.446 77.0113 226.596 75.2062 226.596ZM84.0977 226.447V224.506H79.7334L79.449 223.418L84.2585 217.731H85.5566V223.257H86.793V224.506H85.5566V226.447H84.0977ZM81.2541 223.257H84.0977V219.833L81.2541 223.257ZM91.326 226.571C89.4344 226.571 88.0249 225.582 88.0249 224.086V224.061C88.0249 223.023 88.606 222.367 89.5827 221.959C88.8533 221.576 88.3216 220.995 88.3216 220.031V220.006C88.3216 218.683 89.5951 217.669 91.326 217.669C93.0569 217.669 94.3304 218.671 94.3304 220.006V220.031C94.3304 220.995 93.7987 221.576 93.0693 221.959C94.0213 222.392 94.6271 223.01 94.6271 224.036V224.061C94.6271 225.607 93.2176 226.571 91.326 226.571ZM91.326 221.452C92.2162 221.452 92.8715 220.921 92.8715 220.179V220.154C92.8715 219.487 92.2533 218.943 91.326 218.943C90.3987 218.943 89.7806 219.487 89.7806 220.142V220.167C89.7806 220.921 90.4358 221.452 91.326 221.452ZM91.326 225.297C92.4635 225.297 93.1435 224.716 93.1435 223.999V223.975C93.1435 223.183 92.3522 222.664 91.326 222.664C90.2998 222.664 89.5209 223.183 89.5209 223.975V223.999C89.5209 224.704 90.1886 225.297 91.326 225.297ZM100.313 226.447V224.506H95.9486L95.6642 223.418L100.474 217.731H101.772V223.257H103.008V224.506H101.772V226.447H100.313ZM97.4693 223.257H100.313V219.833L97.4693 223.257ZM107.26 225.211C108.793 225.211 109.349 223.628 109.362 222.479C108.879 223.06 108.212 223.406 107.322 223.406C105.479 223.406 104.255 222.33 104.255 220.661V220.636C104.255 218.943 105.566 217.644 107.482 217.644C108.57 217.644 109.275 217.953 109.893 218.559C110.524 219.202 110.932 220.154 110.932 221.86V221.885C110.932 224.667 109.559 226.596 107.223 226.596C106.023 226.596 105.183 226.163 104.453 225.557L105.282 224.395C105.937 224.939 106.518 225.211 107.26 225.211ZM107.544 222.132C108.644 222.132 109.3 221.415 109.3 220.575V220.55C109.3 219.647 108.595 218.955 107.495 218.955C106.419 218.955 105.776 219.672 105.776 220.562V220.587C105.776 221.489 106.468 222.132 107.544 222.132ZM116.733 226.447V224.506H112.369L112.085 223.418L116.894 217.731H118.192V223.257H119.429V224.506H118.192V226.447H116.733ZM113.89 223.257H116.733V219.833L113.89 223.257Z" fill="#272727"/>
<path d="M40.4515 204.902L43.4095 198.365H44.0957L47.0537 204.902H46.2655L45.5051 203.187H41.9722L41.2026 204.902H40.4515ZM42.2597 202.519H45.2177L43.7433 199.218L42.2597 202.519ZM50.1382 205.014C48.738 205.014 47.6809 203.873 47.6809 202.529V202.51C47.6809 201.156 48.738 200.006 50.1382 200.006C51.0469 200.006 51.6126 200.387 52.0577 200.859L51.5848 201.36C51.2046 200.961 50.778 200.637 50.1289 200.637C49.1553 200.637 48.4135 201.462 48.4135 202.491V202.51C48.4135 203.549 49.1739 204.374 50.1753 204.374C50.7873 204.374 51.2602 204.068 51.6404 203.66L52.0948 204.086C51.6126 204.624 51.0377 205.014 50.1382 205.014ZM55.2998 205.014C53.8996 205.014 52.8425 203.873 52.8425 202.529V202.51C52.8425 201.156 53.8996 200.006 55.2998 200.006C56.2085 200.006 56.7742 200.387 57.2193 200.859L56.7463 201.36C56.3662 200.961 55.9396 200.637 55.2905 200.637C54.3169 200.637 53.5751 201.462 53.5751 202.491V202.51C53.5751 203.549 54.3354 204.374 55.3369 204.374C55.9489 204.374 56.4218 204.068 56.802 203.66L57.2563 204.086C56.7742 204.624 56.1993 205.014 55.2998 205.014ZM60.4892 205.014C59.0519 205.014 58.0041 203.882 58.0041 202.529V202.51C58.0041 201.156 59.0612 200.006 60.5077 200.006C61.945 200.006 63.0021 201.138 63.0021 202.491V202.51C63.0021 203.864 61.9357 205.014 60.4892 205.014ZM60.5077 204.374C61.5463 204.374 62.2696 203.539 62.2696 202.529V202.51C62.2696 201.481 61.4999 200.637 60.4892 200.637C59.4506 200.637 58.7366 201.481 58.7366 202.491V202.51C58.7366 203.539 59.497 204.374 60.5077 204.374ZM66.0573 205.004C64.8982 205.004 64.2213 204.225 64.2213 203.085V200.108H64.9353V202.909C64.9353 203.799 65.4175 204.355 66.2613 204.355C67.0773 204.355 67.6986 203.753 67.6986 202.853V200.108H68.4033V204.902H67.6986V204.068C67.374 204.587 66.8826 205.004 66.0573 205.004ZM70.0095 204.902V200.108H70.7235V200.943C71.0387 200.424 71.5395 200.006 72.3647 200.006C73.5238 200.006 74.2007 200.785 74.2007 201.926V204.902H73.4867V202.102C73.4867 201.212 73.0045 200.655 72.1607 200.655C71.3355 200.655 70.7235 201.258 70.7235 202.158V204.902H70.0095ZM77.3276 204.986C76.558 204.986 75.9738 204.606 75.9738 203.632V200.739H75.3061V200.108H75.9738V198.662H76.6878V200.108H78.2085V200.739H76.6878V203.539C76.6878 204.123 77.0123 204.337 77.4945 204.337C77.7356 204.337 77.9396 204.29 78.19 204.17V204.782C77.9396 204.912 77.6707 204.986 77.3276 204.986ZM82.3729 204.902V198.411H83.0591L87.1484 203.613V198.411H87.8624V204.902H87.2782L83.0869 199.58V204.902H82.3729ZM91.34 205.004C90.1809 205.004 89.504 204.225 89.504 203.085V200.108H90.218V202.909C90.218 203.799 90.7002 204.355 91.544 204.355C92.36 204.355 92.9813 203.753 92.9813 202.853V200.108H93.686V204.902H92.9813V204.068C92.6567 204.587 92.1653 205.004 91.34 205.004ZM95.2921 204.902V200.108H96.0061V200.915C96.3214 200.442 96.7479 200.006 97.5547 200.006C98.3336 200.006 98.8343 200.424 99.0939 200.961C99.437 200.433 99.947 200.006 100.782 200.006C101.885 200.006 102.562 200.748 102.562 201.935V204.902H101.848V202.102C101.848 201.175 101.384 200.655 100.605 200.655C99.8821 200.655 99.2887 201.193 99.2887 202.139V204.902H98.5747V202.083C98.5747 201.184 98.1018 200.655 97.3414 200.655C96.581 200.655 96.0061 201.286 96.0061 202.167V204.902H95.2921ZM106.662 205.004C105.772 205.004 105.197 204.522 104.826 203.984V204.902H104.112V198.133H104.826V201.073C105.216 200.498 105.781 200.006 106.662 200.006C107.812 200.006 108.952 200.915 108.952 202.491V202.51C108.952 204.077 107.821 205.004 106.662 205.004ZM106.532 204.365C107.46 204.365 108.22 203.678 108.22 202.519V202.501C108.22 201.369 107.441 200.646 106.532 200.646C105.642 200.646 104.798 201.397 104.798 202.491V202.51C104.798 203.623 105.642 204.365 106.532 204.365ZM112.365 205.014C111.049 205.014 109.973 204.003 109.973 202.519V202.501C109.973 201.119 110.947 200.006 112.273 200.006C113.691 200.006 114.507 201.138 114.507 202.538C114.507 202.631 114.507 202.686 114.498 202.77H110.696C110.798 203.808 111.531 204.392 112.384 204.392C113.042 204.392 113.506 204.123 113.895 203.715L114.34 204.114C113.858 204.652 113.274 205.014 112.365 205.014ZM110.696 202.241H113.784C113.71 201.369 113.209 200.609 112.254 200.609C111.42 200.609 110.789 201.305 110.696 202.241ZM115.757 204.902V200.108H116.471V201.36C116.824 200.563 117.519 199.988 118.428 200.025V200.795H118.372C117.324 200.795 116.471 201.546 116.471 202.992V204.902H115.757Z" fill="#767676"/>
<path d="M41.2026 275.131V266.476H44.6149C46.6426 266.476 47.9037 267.626 47.9037 269.369V269.394C47.9037 271.335 46.3458 272.349 44.4418 272.349H42.7233V275.131H41.2026ZM42.7233 270.977H44.4913C45.6411 270.977 46.3582 270.334 46.3582 269.431V269.406C46.3582 268.393 45.6288 267.861 44.4913 267.861H42.7233V270.977ZM49.288 275.131V268.603H50.784V270.074C51.192 269.097 51.9462 268.43 53.096 268.479V270.062H53.0095C51.6989 270.062 50.784 270.915 50.784 272.646V275.131H49.288ZM57.2812 275.279C55.2906 275.279 53.8194 273.758 53.8194 271.904V271.879C53.8194 270.012 55.303 268.467 57.3059 268.467C59.3088 268.467 60.7801 269.988 60.7801 271.854V271.879C60.7801 273.734 59.2965 275.279 57.2812 275.279ZM57.3059 273.969C58.5176 273.969 59.2841 273.029 59.2841 271.904V271.879C59.2841 270.729 58.4557 269.777 57.2812 269.777C56.0819 269.777 55.3154 270.717 55.3154 271.854V271.879C55.3154 273.017 56.1437 273.969 57.3059 273.969ZM63.9941 275.18L61.3112 268.603H62.9184L64.6741 273.4L66.4421 268.603H68.0122L65.3417 275.18H63.9941ZM69.307 267.601V266.18H70.9143V267.601H69.307ZM69.3689 275.131V268.603H70.8649V275.131H69.3689ZM75.5152 275.267C73.9821 275.267 72.4861 274.043 72.4861 271.879V271.854C72.4861 269.691 73.9574 268.467 75.5152 268.467C76.5909 268.467 77.2709 268.998 77.7407 269.617V266.105H79.2367V275.131H77.7407V274.043C77.2585 274.723 76.5785 275.267 75.5152 275.267ZM75.8738 273.969C76.8752 273.969 77.7654 273.128 77.7654 271.879V271.854C77.7654 270.593 76.8752 269.765 75.8738 269.765C74.8476 269.765 73.9945 270.556 73.9945 271.854V271.879C73.9945 273.14 74.86 273.969 75.8738 273.969ZM83.3649 275.267C81.8936 275.267 81.0405 274.278 81.0405 272.757V268.603H82.5365V272.312C82.5365 273.326 83.0434 273.894 83.9336 273.894C84.7991 273.894 85.4049 273.301 85.4049 272.287V268.603H86.9132V275.131H85.4049V274.117C84.9845 274.735 84.3787 275.267 83.3649 275.267ZM91.0194 275.254C90.0922 275.254 89.066 274.921 88.25 274.278L88.9176 273.264C89.6347 273.796 90.3889 274.068 91.0565 274.068C91.6994 274.068 92.0703 273.796 92.0703 273.363V273.338C92.0703 272.831 91.378 272.658 90.6114 272.423C89.6471 272.151 88.5714 271.756 88.5714 270.507V270.482C88.5714 269.246 89.5976 268.492 90.8958 268.492C91.7118 268.492 92.602 268.776 93.2943 269.233L92.7009 270.297C92.0703 269.913 91.4027 269.678 90.8587 269.678C90.2776 269.678 89.9438 269.95 89.9438 270.321V270.346C89.9438 270.828 90.6485 271.026 91.4151 271.273C92.3671 271.57 93.4427 272.003 93.4427 273.177V273.202C93.4427 274.574 92.3794 275.254 91.0194 275.254ZM98.8553 275.131V266.476H102.737C103.727 266.476 104.505 266.748 105 267.243C105.383 267.626 105.581 268.096 105.581 268.677V268.702C105.581 269.74 104.988 270.297 104.345 270.63C105.359 270.977 106.063 271.558 106.063 272.732V272.757C106.063 274.302 104.79 275.131 102.861 275.131H98.8553ZM104.06 268.949V268.924C104.06 268.244 103.516 267.824 102.54 267.824H100.351V270.124H102.428C103.405 270.124 104.06 269.74 104.06 268.949ZM104.543 272.572C104.543 271.842 103.961 271.409 102.762 271.409H100.351V273.783H102.873C103.912 273.783 104.543 273.375 104.543 272.596V272.572ZM109.484 275.267C108.26 275.267 107.172 274.562 107.172 273.252V273.227C107.172 271.817 108.272 271.125 109.867 271.125C110.597 271.125 111.116 271.236 111.623 271.397V271.236C111.623 270.309 111.054 269.814 110.003 269.814C109.274 269.814 108.73 269.975 108.136 270.222L107.741 269.048C108.458 268.726 109.163 268.516 110.201 268.516C111.178 268.516 111.907 268.776 112.365 269.246C112.847 269.716 113.069 270.408 113.069 271.261V275.131H111.611V274.315C111.165 274.846 110.485 275.267 109.484 275.267ZM109.904 274.179C110.893 274.179 111.648 273.61 111.648 272.782V272.337C111.264 272.188 110.757 272.077 110.164 272.077C109.2 272.077 108.631 272.485 108.631 273.165V273.19C108.631 273.82 109.187 274.179 109.904 274.179ZM114.861 275.131V268.603H116.357V269.604C116.778 268.998 117.383 268.467 118.397 268.467C119.868 268.467 120.722 269.456 120.722 270.964V275.131H119.226V271.422C119.226 270.408 118.719 269.827 117.828 269.827C116.963 269.827 116.357 270.433 116.357 271.446V275.131H114.861ZM122.528 275.131V266.105H124.024V271.496L126.732 268.603H128.549L125.953 271.261L128.636 275.131H126.88L124.951 272.3L124.024 273.264V275.131H122.528Z" fill="#272727"/>
<path d="M41.0078 253.584V247.093H43.7711C44.5129 247.093 45.0971 247.306 45.468 247.668C45.7369 247.946 45.8853 248.289 45.8853 248.707V248.725C45.8853 249.569 45.366 250.005 44.856 250.227C45.6257 250.459 46.2469 250.904 46.2469 251.794V251.813C46.2469 252.926 45.3104 253.584 43.8917 253.584H41.0078ZM45.1435 248.827V248.809C45.1435 248.169 44.6335 247.751 43.7062 247.751H41.7311V249.986H43.6506C44.5315 249.986 45.1435 249.587 45.1435 248.827ZM45.5051 251.748C45.5051 251.043 44.9117 250.635 43.7804 250.635H41.7311V252.926H43.9102C44.8931 252.926 45.5051 252.49 45.5051 251.767V251.748ZM49.0072 253.686C48.1171 253.686 47.2176 253.176 47.2176 252.193V252.175C47.2176 251.164 48.0521 250.626 49.2669 250.626C49.8789 250.626 50.3147 250.709 50.7412 250.83V250.663C50.7412 249.801 50.2127 249.356 49.3132 249.356C48.7476 249.356 48.3025 249.504 47.8574 249.708L47.6441 249.124C48.1727 248.883 48.692 248.725 49.3874 248.725C50.0643 248.725 50.5836 248.901 50.936 249.254C51.2605 249.578 51.4274 250.042 51.4274 250.654V253.584H50.7412V252.861C50.4074 253.297 49.8511 253.686 49.0072 253.686ZM49.1463 253.12C50.0272 253.12 50.7505 252.583 50.7505 251.822V251.359C50.3981 251.257 49.9252 251.155 49.3411 251.155C48.4416 251.155 47.9409 251.544 47.9409 252.147V252.165C47.9409 252.768 48.4972 253.12 49.1463 253.12ZM52.9491 253.584V248.79H53.6631V249.625C53.9784 249.105 54.4791 248.688 55.3044 248.688C56.4635 248.688 57.1404 249.467 57.1404 250.607V253.584H56.4264V250.784C56.4264 249.893 55.9442 249.337 55.1004 249.337C54.2751 249.337 53.6631 249.94 53.6631 250.839V253.584H52.9491ZM58.663 253.584V246.815H59.377V251.488L61.9641 248.79H62.8543L60.8421 250.849L62.9192 253.584H62.0661L60.3507 251.349L59.377 252.332V253.584H58.663Z" fill="#767676"/>
<path d="M40.4608 323.812L44.2688 315.096H45.6782L49.4862 323.812H47.8789L47.0011 321.723H42.9088L42.0186 323.812H40.4608ZM43.4651 320.375H46.4448L44.9488 316.914L43.4651 320.375ZM53.1786 323.949C51.6455 323.949 50.1495 322.724 50.1495 320.561V320.536C50.1495 318.372 51.6208 317.148 53.1786 317.148C54.2542 317.148 54.9342 317.68 55.404 318.298V314.787H56.9V323.812H55.404V322.724C54.9219 323.405 54.2419 323.949 53.1786 323.949ZM53.5371 322.65C54.5386 322.65 55.4288 321.81 55.4288 320.561V320.536C55.4288 319.275 54.5386 318.447 53.5371 318.447C52.511 318.447 51.6579 319.238 51.6579 320.536V320.561C51.6579 321.822 52.5233 322.65 53.5371 322.65ZM61.8813 323.961C59.8908 323.961 58.4195 322.44 58.4195 320.586V320.561C58.4195 318.694 59.9032 317.148 61.9061 317.148C63.909 317.148 65.3802 318.669 65.3802 320.536V320.561C65.3802 322.415 63.8966 323.961 61.8813 323.961ZM61.9061 322.65C63.1177 322.65 63.8842 321.711 63.8842 320.586V320.561C63.8842 319.411 63.0559 318.459 61.8813 318.459C60.6821 318.459 59.9155 319.399 59.9155 320.536V320.561C59.9155 321.698 60.7439 322.65 61.9061 322.65ZM66.9038 323.812V317.285H68.3998V318.286C68.8201 317.68 69.426 317.148 70.4398 317.148C71.911 317.148 72.7641 318.138 72.7641 319.646V323.812H71.2681V320.103C71.2681 319.09 70.7612 318.508 69.871 318.508C69.0056 318.508 68.3998 319.114 68.3998 320.128V323.812H66.9038ZM74.5707 323.812V314.787H76.0667V318.286C76.487 317.68 77.0929 317.148 78.1067 317.148C79.5779 317.148 80.431 318.138 80.431 319.646V323.812H78.935V320.103C78.935 319.09 78.4281 318.508 77.5379 318.508C76.6725 318.508 76.0667 319.114 76.0667 320.128V323.812H74.5707ZM85.3408 323.961C83.3503 323.961 81.879 322.44 81.879 320.586V320.561C81.879 318.694 83.3627 317.148 85.3656 317.148C87.3685 317.148 88.8398 318.669 88.8398 320.536V320.561C88.8398 322.415 87.3561 323.961 85.3408 323.961ZM85.3656 322.65C86.5772 322.65 87.3438 321.711 87.3438 320.586V320.561C87.3438 319.411 86.5154 318.459 85.3408 318.459C84.1416 318.459 83.375 319.399 83.375 320.536V320.561C83.375 321.698 84.2034 322.65 85.3656 322.65ZM90.3633 323.812V317.285H91.8593V318.274C92.2796 317.692 92.8484 317.148 93.8498 317.148C94.7895 317.148 95.4571 317.606 95.8033 318.298C96.3226 317.606 97.0149 317.148 98.004 317.148C99.4258 317.148 100.291 318.051 100.291 319.646V323.812H98.7953V320.103C98.7953 319.065 98.3131 318.508 97.4724 318.508C96.6564 318.508 96.0753 319.077 96.0753 320.128V323.812H94.5793V320.091C94.5793 319.077 94.0847 318.508 93.2564 318.508C92.428 318.508 91.8593 319.127 91.8593 320.128V323.812H90.3633ZM105.103 323.961C103.212 323.961 101.753 322.588 101.753 320.573V320.549C101.753 318.682 103.076 317.148 104.942 317.148C107.02 317.148 108.07 318.781 108.07 320.66C108.07 320.796 108.058 320.932 108.046 321.08H103.249C103.409 322.143 104.164 322.737 105.128 322.737C105.857 322.737 106.377 322.465 106.896 321.958L107.774 322.737C107.156 323.479 106.302 323.961 105.103 323.961ZM103.236 320.091H106.587C106.488 319.127 105.919 318.372 104.93 318.372C104.015 318.372 103.372 319.077 103.236 320.091ZM111.811 323.936C110.883 323.936 109.857 323.602 109.041 322.959L109.709 321.946C110.426 322.477 111.18 322.749 111.848 322.749C112.491 322.749 112.862 322.477 112.862 322.044V322.02C112.862 321.513 112.169 321.34 111.403 321.105C110.438 320.833 109.363 320.437 109.363 319.188V319.164C109.363 317.927 110.389 317.173 111.687 317.173C112.503 317.173 113.393 317.458 114.086 317.915L113.492 318.978C112.862 318.595 112.194 318.36 111.65 318.36C111.069 318.36 110.735 318.632 110.735 319.003V319.028C110.735 319.51 111.44 319.708 112.206 319.955C113.158 320.252 114.234 320.684 114.234 321.859V321.884C114.234 323.256 113.171 323.936 111.811 323.936ZM120.734 323.812V316.642L119.177 317.074L118.855 315.838L121.192 315.096H122.243V323.812H120.734ZM127.602 323.961C126.539 323.961 125.772 323.627 125.191 323.046C124.536 322.391 124.14 321.488 124.14 319.745V319.72C124.14 317.074 125.402 315.01 127.85 315.01C128.975 315.01 129.741 315.368 130.495 315.974L129.679 317.148C129.074 316.679 128.567 316.394 127.8 316.394C126.292 316.394 125.748 317.964 125.723 319.151C126.23 318.62 126.873 318.274 127.8 318.274C129.469 318.274 130.817 319.263 130.817 320.994V321.018C130.817 322.737 129.42 323.961 127.602 323.961ZM127.565 322.638C128.641 322.638 129.296 321.97 129.296 321.08V321.055C129.296 320.19 128.604 319.547 127.528 319.547C126.452 319.547 125.772 320.239 125.772 321.068V321.092C125.772 321.97 126.49 322.638 127.565 322.638Z" fill="#272727"/>
<path d="M40.4515 302.266L43.4095 295.728H44.0957L47.0537 302.266H46.2655L45.5051 300.55H41.9722L41.2026 302.266H40.4515ZM42.2597 299.883H45.2177L43.7433 296.581L42.2597 299.883ZM50.1382 302.377C48.738 302.377 47.6809 301.236 47.6809 299.892V299.873C47.6809 298.519 48.738 297.37 50.1382 297.37C51.0469 297.37 51.6126 297.75 52.0577 298.223L51.5848 298.723C51.2046 298.325 50.778 298 50.1289 298C49.1553 298 48.4135 298.825 48.4135 299.855V299.873C48.4135 300.912 49.1739 301.737 50.1753 301.737C50.7873 301.737 51.2602 301.431 51.6404 301.023L52.0948 301.45C51.6126 301.987 51.0377 302.377 50.1382 302.377ZM55.2998 302.377C53.8996 302.377 52.8425 301.236 52.8425 299.892V299.873C52.8425 298.519 53.8996 297.37 55.2998 297.37C56.2085 297.37 56.7742 297.75 57.2193 298.223L56.7463 298.723C56.3662 298.325 55.9396 298 55.2905 298C54.3169 298 53.5751 298.825 53.5751 299.855V299.873C53.5751 300.912 54.3354 301.737 55.3369 301.737C55.9489 301.737 56.4218 301.431 56.802 301.023L57.2563 301.45C56.7742 301.987 56.1993 302.377 55.2998 302.377ZM60.4892 302.377C59.0519 302.377 58.0041 301.246 58.0041 299.892V299.873C58.0041 298.519 59.0612 297.37 60.5077 297.37C61.945 297.37 63.0021 298.501 63.0021 299.855V299.873C63.0021 301.227 61.9357 302.377 60.4892 302.377ZM60.5077 301.737C61.5463 301.737 62.2696 300.903 62.2696 299.892V299.873C62.2696 298.844 61.4999 298 60.4892 298C59.4506 298 58.7366 298.844 58.7366 299.855V299.873C58.7366 300.903 59.497 301.737 60.5077 301.737ZM66.0573 302.368C64.8982 302.368 64.2213 301.589 64.2213 300.448V297.472H64.9353V300.272C64.9353 301.162 65.4175 301.719 66.2613 301.719C67.0773 301.719 67.6986 301.116 67.6986 300.216V297.472H68.4033V302.266H67.6986V301.431C67.374 301.95 66.8826 302.368 66.0573 302.368ZM70.0095 302.266V297.472H70.7235V298.306C71.0387 297.787 71.5395 297.37 72.3647 297.37C73.5238 297.37 74.2007 298.149 74.2007 299.289V302.266H73.4867V299.465C73.4867 298.575 73.0045 298.019 72.1607 298.019C71.3355 298.019 70.7235 298.621 70.7235 299.521V302.266H70.0095ZM77.3276 302.349C76.558 302.349 75.9738 301.969 75.9738 300.995V298.102H75.3061V297.472H75.9738V296.025H76.6878V297.472H78.2085V298.102H76.6878V300.903C76.6878 301.487 77.0123 301.7 77.4945 301.7C77.7356 301.7 77.9396 301.654 78.19 301.533V302.145C77.9396 302.275 77.6707 302.349 77.3276 302.349ZM82.3729 302.266V295.775H83.0591L87.1484 300.977V295.775H87.8624V302.266H87.2782L83.0869 296.943V302.266H82.3729ZM91.0062 302.368C90.116 302.368 89.2165 301.858 89.2165 300.875V300.856C89.2165 299.845 90.0511 299.308 91.2658 299.308C91.8778 299.308 92.3136 299.391 92.7402 299.512V299.345C92.7402 298.482 92.2116 298.037 91.3122 298.037C90.7465 298.037 90.3014 298.186 89.8564 298.39L89.6431 297.805C90.1716 297.564 90.6909 297.407 91.3864 297.407C92.0633 297.407 92.5825 297.583 92.9349 297.935C93.2594 298.26 93.4264 298.723 93.4264 299.335V302.266H92.7402V301.542C92.4064 301.978 91.85 302.368 91.0062 302.368ZM91.1453 301.802C92.0262 301.802 92.7494 301.264 92.7494 300.504V300.04C92.3971 299.938 91.9242 299.836 91.34 299.836C90.4405 299.836 89.9398 300.226 89.9398 300.828V300.847C89.9398 301.45 90.4962 301.802 91.1453 301.802ZM94.948 302.266V297.472H95.662V298.278C95.9773 297.805 96.4038 297.37 97.2106 297.37C97.9895 297.37 98.4902 297.787 98.7498 298.325C99.0929 297.796 99.6029 297.37 100.437 297.37C101.541 297.37 102.218 298.111 102.218 299.298V302.266H101.504V299.465C101.504 298.538 101.04 298.019 100.261 298.019C99.538 298.019 98.9446 298.557 98.9446 299.502V302.266H98.2306V299.447C98.2306 298.547 97.7577 298.019 96.9973 298.019C96.2369 298.019 95.662 298.649 95.662 299.53V302.266H94.948ZM105.864 302.377C104.547 302.377 103.471 301.366 103.471 299.883V299.864C103.471 298.482 104.445 297.37 105.771 297.37C107.19 297.37 108.006 298.501 108.006 299.901C108.006 299.994 108.006 300.049 107.996 300.133H104.195C104.297 301.171 105.029 301.756 105.882 301.756C106.541 301.756 107.004 301.487 107.394 301.079L107.839 301.477C107.357 302.015 106.772 302.377 105.864 302.377ZM104.195 299.604H107.282C107.208 298.733 106.707 297.972 105.752 297.972C104.918 297.972 104.287 298.668 104.195 299.604Z" fill="#767676"/>
</g>
<path d="M16.4647 62.0318C15.0923 62.0318 13.9673 61.5744 12.9287 60.6471L13.5345 59.93C14.4371 60.746 15.3025 61.154 16.5018 61.154C17.664 61.154 18.4305 60.5358 18.4305 59.6827V59.658C18.4305 58.8544 17.9978 58.3969 16.1803 58.0137C14.1898 57.5809 13.2749 56.938 13.2749 55.5162V55.4915C13.2749 54.1315 14.4742 53.13 16.1185 53.13C17.3796 53.13 18.2822 53.4886 19.16 54.1933L18.5913 54.9475C17.7876 54.2922 16.984 54.0078 16.0938 54.0078C14.9687 54.0078 14.2516 54.626 14.2516 55.4049V55.4297C14.2516 56.2457 14.6967 56.7031 16.6007 57.1111C18.5294 57.5315 19.4196 58.2362 19.4196 59.5591V59.5838C19.4196 61.0675 18.1833 62.0318 16.4647 62.0318ZM24.0393 62.0566C22.2836 62.0566 20.8495 60.7089 20.8495 58.7307V58.706C20.8495 56.8638 22.1476 55.3802 23.9156 55.3802C25.8073 55.3802 26.8953 56.8886 26.8953 58.7555C26.8953 58.8791 26.8953 58.9533 26.8829 59.0646H21.8138C21.9498 60.4493 22.9265 61.2282 24.064 61.2282C24.9418 61.2282 25.56 60.8697 26.0793 60.3257L26.6727 60.8573C26.0298 61.5744 25.2509 62.0566 24.0393 62.0566ZM21.8138 58.3598H25.9309C25.832 57.1977 25.1644 56.1838 23.8909 56.1838C22.7782 56.1838 21.9375 57.1111 21.8138 58.3598ZM28.6484 61.9082V52.8827H29.6004V61.9082H28.6484ZM34.6039 62.0566C32.8483 62.0566 31.4141 60.7089 31.4141 58.7307V58.706C31.4141 56.8638 32.7123 55.3802 34.4803 55.3802C36.3719 55.3802 37.4599 56.8886 37.4599 58.7555C37.4599 58.8791 37.4599 58.9533 37.4475 59.0646H32.3784C32.5144 60.4493 33.4912 61.2282 34.6286 61.2282C35.5064 61.2282 36.1246 60.8697 36.6439 60.3257L37.2374 60.8573C36.5944 61.5744 35.8155 62.0566 34.6039 62.0566ZM32.3784 58.3598H36.4955C36.3966 57.1977 35.729 56.1838 34.4555 56.1838C33.3428 56.1838 32.5021 57.1111 32.3784 58.3598ZM42.0072 62.0566C40.1403 62.0566 38.7308 60.5358 38.7308 58.7431V58.7184C38.7308 56.9133 40.1403 55.3802 42.0072 55.3802C43.2188 55.3802 43.973 55.8871 44.5665 56.5177L43.9359 57.1853C43.429 56.6537 42.8603 56.2209 41.9948 56.2209C40.6967 56.2209 39.7076 57.3213 39.7076 58.6937V58.7184C39.7076 60.1031 40.7214 61.2035 42.0567 61.2035C42.8727 61.2035 43.5032 60.7955 44.0101 60.2515L44.6159 60.8202C43.973 61.5373 43.2065 62.0566 42.0072 62.0566ZM48.3286 62.0195C47.3024 62.0195 46.5235 61.5126 46.5235 60.2144V56.3569H45.6333V55.5162H46.5235V53.5875H47.4755V55.5162H49.5031V56.3569H47.4755V60.0907C47.4755 60.8697 47.9082 61.154 48.5511 61.154C48.8726 61.154 49.1446 61.0922 49.4784 60.9315V61.7475C49.1446 61.9206 48.7861 62.0195 48.3286 62.0195ZM55.0557 61.9082V53.2537H58.2949C60.2484 53.2537 61.5342 54.2922 61.5342 55.9984V56.0231C61.5342 57.89 59.9764 58.8544 58.1342 58.8544H56.0324V61.9082H55.0557ZM56.0324 57.9642H58.1713C59.6055 57.9642 60.5451 57.1977 60.5451 56.0602V56.0355C60.5451 54.7991 59.6179 54.1562 58.2208 54.1562H56.0324V57.9642ZM64.9367 62.0442C63.7498 62.0442 62.5506 61.3642 62.5506 60.0537V60.0289C62.5506 58.6813 63.6633 57.9642 65.2829 57.9642C66.0989 57.9642 66.68 58.0755 67.2487 58.2362V58.0137C67.2487 56.8638 66.544 56.2704 65.3447 56.2704C64.5906 56.2704 63.9971 56.4682 63.4036 56.7402L63.1193 55.9613C63.824 55.6398 64.5164 55.4297 65.4436 55.4297C66.3462 55.4297 67.0386 55.6646 67.5084 56.1344C67.9411 56.5671 68.1636 57.1853 68.1636 58.0013V61.9082H67.2487V60.9438C66.8036 61.5249 66.0618 62.0442 64.9367 62.0442ZM65.1222 61.29C66.2967 61.29 67.2611 60.5729 67.2611 59.5591V58.9409C66.7913 58.8049 66.1607 58.6689 65.3818 58.6689C64.1826 58.6689 63.5149 59.1882 63.5149 59.9918V60.0166C63.5149 60.8202 64.2567 61.29 65.1222 61.29ZM72.6834 60.8449L74.7358 55.5162H75.7496L73.0667 62.1184C72.5227 63.4413 71.9045 63.9235 70.9401 63.9235C70.4085 63.9235 70.0129 63.8122 69.5801 63.602L69.9016 62.8478C70.2107 63.0086 70.4951 63.0827 70.9031 63.0827C71.4718 63.0827 71.8303 62.786 72.2136 61.8835L69.3081 55.5162H70.3591L72.6834 60.8449ZM77.2557 61.9082V55.5162H78.2077V56.5918C78.6281 55.9613 79.1968 55.3802 80.2725 55.3802C81.311 55.3802 81.9787 55.9366 82.3248 56.6537C82.7823 55.9489 83.4623 55.3802 84.575 55.3802C86.0463 55.3802 86.9488 56.3693 86.9488 57.9518V61.9082H85.9968V58.1744C85.9968 56.938 85.3787 56.2457 84.3401 56.2457C83.3757 56.2457 82.5845 56.9627 82.5845 58.2238V61.9082H81.6325V58.1497C81.6325 56.9504 81.0019 56.2457 79.9881 56.2457C78.9743 56.2457 78.2077 57.0864 78.2077 58.2609V61.9082H77.2557ZM91.8099 62.0566C90.0542 62.0566 88.6201 60.7089 88.6201 58.7307V58.706C88.6201 56.8638 89.9182 55.3802 91.6862 55.3802C93.5779 55.3802 94.6659 56.8886 94.6659 58.7555C94.6659 58.8791 94.6659 58.9533 94.6535 59.0646H89.5844C89.7204 60.4493 90.6971 61.2282 91.8346 61.2282C92.7124 61.2282 93.3306 60.8697 93.8499 60.3257L94.4433 60.8573C93.8004 61.5744 93.0215 62.0566 91.8099 62.0566ZM89.5844 58.3598H93.7015C93.6026 57.1977 92.935 56.1838 91.6615 56.1838C90.5488 56.1838 89.7081 57.1111 89.5844 58.3598ZM96.3324 61.9082V55.5162H97.2844V56.6289C97.7048 55.9366 98.3724 55.3802 99.4728 55.3802C101.018 55.3802 101.921 56.4187 101.921 57.9395V61.9082H100.969V58.1744C100.969 56.9875 100.326 56.2457 99.2008 56.2457C98.1004 56.2457 97.2844 57.0493 97.2844 58.2486V61.9082H96.3324ZM106.09 62.0195C105.064 62.0195 104.285 61.5126 104.285 60.2144V56.3569H103.395V55.5162H104.285V53.5875H105.237V55.5162H107.265V56.3569H105.237V60.0907C105.237 60.8697 105.67 61.154 106.313 61.154C106.634 61.154 106.906 61.0922 107.24 60.9315V61.7475C106.906 61.9206 106.547 62.0195 106.09 62.0195ZM112.817 61.9082V53.2537H113.806L116.959 57.9766L120.112 53.2537H121.101V61.9082H120.124V54.898L116.971 59.5344H116.922L113.769 54.9104V61.9082H112.817ZM126.184 62.0566C124.429 62.0566 122.994 60.7089 122.994 58.7307V58.706C122.994 56.8638 124.293 55.3802 126.061 55.3802C127.952 55.3802 129.04 56.8886 129.04 58.7555C129.04 58.8791 129.04 58.9533 129.028 59.0646H123.959C124.095 60.4493 125.071 61.2282 126.209 61.2282C127.087 61.2282 127.705 60.8697 128.224 60.3257L128.818 60.8573C128.175 61.5744 127.396 62.0566 126.184 62.0566ZM123.959 58.3598H128.076C127.977 57.1977 127.309 56.1838 126.036 56.1838C124.923 56.1838 124.082 57.1111 123.959 58.3598ZM132.846 62.0195C131.819 62.0195 131.041 61.5126 131.041 60.2144V56.3569H130.15V55.5162H131.041V53.5875H131.993V55.5162H134.02V56.3569H131.993V60.0907C131.993 60.8697 132.425 61.154 133.068 61.154C133.39 61.154 133.662 61.0922 133.995 60.9315V61.7475C133.662 61.9206 133.303 62.0195 132.846 62.0195ZM135.705 61.9082V52.8827H136.657V56.6289C137.078 55.9366 137.745 55.3802 138.846 55.3802C140.391 55.3802 141.294 56.4187 141.294 57.9395V61.9082H140.342V58.1744C140.342 56.9875 139.699 56.2457 138.574 56.2457C137.473 56.2457 136.657 57.0493 136.657 58.2486V61.9082H135.705ZM146.242 62.0566C144.325 62.0566 142.928 60.5482 142.928 58.7431V58.7184C142.928 56.9133 144.338 55.3802 146.266 55.3802C148.183 55.3802 149.592 56.8886 149.592 58.6937V58.7184C149.592 60.5235 148.17 62.0566 146.242 62.0566ZM146.266 61.2035C147.651 61.2035 148.616 60.0907 148.616 58.7431V58.7184C148.616 57.346 147.589 56.2209 146.242 56.2209C144.857 56.2209 143.905 57.346 143.905 58.6937V58.7184C143.905 60.0907 144.919 61.2035 146.266 61.2035ZM154 62.0442C152.467 62.0442 150.946 60.8326 150.946 58.7307V58.706C150.946 56.6166 152.467 55.3802 154 55.3802C155.187 55.3802 155.953 56.0231 156.448 56.7402V52.8827H157.4V61.9082H156.448V60.6224C155.928 61.3889 155.174 62.0442 154 62.0442ZM154.173 61.1911C155.36 61.1911 156.485 60.1897 156.485 58.7184V58.6937C156.485 57.2224 155.36 56.2333 154.173 56.2333C152.936 56.2333 151.923 57.1482 151.923 58.6937V58.7184C151.923 60.2267 152.974 61.1911 154.173 61.1911Z" fill="#272727"/>
<rect x="-2.97656" y="243" width="343.833" height="227.566" fill="url(#paint0_linear_3910_3307)"/>
</g>
</g>
<defs>
<filter id="filter0_d_3910_3307" x="-10.1349" y="315.903" width="397.183" height="458.999" filterUnits="userSpaceOnUse" color-interpolation-filters="sRGB">
<feFlood flood-opacity="0" result="BackgroundImageFix"/>
<feColorMatrix in="SourceAlpha" type="matrix" values="0 0 0 0 0 0 0 0 0 0 0 0 0 0 0 0 0 0 127 0" result="hardAlpha"/>
<feMorphology radius="13.1364" operator="dilate" in="SourceAlpha" result="effect1_dropShadow_3910_3307"/>
<feOffset dx="15.4545"/>
<feGaussianBlur stdDeviation="17"/>
<feComposite in2="hardAlpha" operator="out"/>
<feColorMatrix type="matrix" values="0 0 0 0 0 0 0 0 0 0 0 0 0 0 0 0 0 0 0.03 0"/>
<feBlend mode="normal" in2="BackgroundImageFix" result="effect1_dropShadow_3910_3307"/>
<feBlend mode="normal" in="SourceGraphic" in2="effect1_dropShadow_3910_3307" result="shape"/>
</filter>
<linearGradient id="paint0_linear_3910_3307" x1="168.94" y1="243" x2="169.175" y2="416.97" gradientUnits="userSpaceOnUse">
<stop stop-color="white" stop-opacity="0"/>
<stop offset="1" stop-color="white"/>
</linearGradient>
<clipPath id="clip0_3910_3307">
<rect width="340" height="470" rx="20" fill="white"/>
</clipPath>
<clipPath id="clip1_3910_3307">
<rect x="12.2734" y="74.0391" width="321.455" height="720.233" rx="23.1818" fill="white"/>
</clipPath>
<clipPath id="clip2_3910_3307">
<rect width="15.4545" height="15.4545" fill="white" transform="translate(50.1367 132.766)"/>
</clipPath>
</defs>
</svg>
