<svg width="32" height="32" viewBox="0 0 32 32" fill="none" xmlns="http://www.w3.org/2000/svg">
<path d="M18.6667 12C18.2889 12 17.9724 11.872 17.7173 11.616C17.4622 11.36 17.3342 11.0436 17.3333 10.6667V5.33333C17.3333 4.95556 17.4613 4.63911 17.7173 4.384C17.9733 4.12889 18.2898 4.00089 18.6667 4H26.6667C27.0444 4 27.3613 4.128 27.6173 4.384C27.8733 4.64 28.0009 4.95644 28 5.33333V10.6667C28 11.0444 27.872 11.3613 27.616 11.6173C27.36 11.8733 27.0436 12.0009 26.6667 12H18.6667ZM5.33333 17.3333C4.95556 17.3333 4.63911 17.2053 4.384 16.9493C4.12889 16.6933 4.00089 16.3769 4 16V5.33333C4 4.95556 4.128 4.63911 4.384 4.384C4.64 4.12889 4.95644 4.00089 5.33333 4H13.3333C13.7111 4 14.028 4.128 14.284 4.384C14.54 4.64 14.6676 4.95644 14.6667 5.33333V16C14.6667 16.3778 14.5387 16.6947 14.2827 16.9507C14.0267 17.2067 13.7102 17.3342 13.3333 17.3333H5.33333ZM18.6667 28C18.2889 28 17.9724 27.872 17.7173 27.616C17.4622 27.36 17.3342 27.0436 17.3333 26.6667V16C17.3333 15.6222 17.4613 15.3058 17.7173 15.0507C17.9733 14.7956 18.2898 14.6676 18.6667 14.6667H26.6667C27.0444 14.6667 27.3613 14.7947 27.6173 15.0507C27.8733 15.3067 28.0009 15.6231 28 16V26.6667C28 27.0444 27.872 27.3613 27.616 27.6173C27.36 27.8733 27.0436 28.0009 26.6667 28H18.6667ZM5.33333 28C4.95556 28 4.63911 27.872 4.384 27.616C4.12889 27.36 4.00089 27.0436 4 26.6667V21.3333C4 20.9556 4.128 20.6391 4.384 20.384C4.64 20.1289 4.95644 20.0009 5.33333 20H13.3333C13.7111 20 14.028 20.128 14.284 20.384C14.54 20.64 14.6676 20.9564 14.6667 21.3333V26.6667C14.6667 27.0444 14.5387 27.3613 14.2827 27.6173C14.0267 27.8733 13.7102 28.0009 13.3333 28H5.33333Z" fill="#79B833"/>
</svg>
