<svg width="32" height="32" viewBox="0 0 32 32" fill="none" xmlns="http://www.w3.org/2000/svg">
<path fill-rule="evenodd" clip-rule="evenodd" d="M18.3733 1.57079C20.132 1.13746 22.0353 1.78079 23.004 3.43612C23.2527 3.86146 23.5253 4.35746 23.814 4.92812C21.7887 4.79412 18.784 4.66746 14.6667 4.66746C12.344 4.66746 10.376 4.70746 8.73733 4.76746C11.8187 3.48079 15.1713 2.35879 18.3733 1.57079ZM5.37133 30.7268C7.356 30.8641 10.4033 31.0008 14.6667 31.0008C18.93 31.0008 21.9773 30.8641 23.962 30.7268C26.1473 30.5755 27.8713 28.9155 28.0507 26.7121C28.0853 26.2912 28.1187 25.8221 28.1507 25.3048C27.5313 25.3228 26.8167 25.3341 26 25.3341C24.884 25.3341 23.9573 25.3128 23.2067 25.2828C20.7807 25.1855 18.822 23.3275 18.7113 20.8381C18.6847 20.2295 18.6667 19.5088 18.6667 18.6675C18.6667 17.8261 18.6847 17.1055 18.7113 16.4968C18.822 14.0075 20.7807 12.1501 23.2067 12.0521C24.1373 12.0164 25.0686 11.9993 26 12.0008C26.8167 12.0008 27.5313 12.0121 28.1507 12.0301C28.1187 11.5123 28.0853 11.0435 28.0507 10.6235C27.8713 8.41946 26.1473 6.75946 23.962 6.60812C21.9773 6.47079 18.93 6.33412 14.6667 6.33412C10.4033 6.33412 7.356 6.47079 5.37133 6.60812C3.186 6.75946 1.462 8.41946 1.28267 10.6228C1.13733 12.4081 1 15.0508 1 18.6675C1 22.2841 1.13733 24.9275 1.28267 26.7121C1.462 28.9155 3.186 30.5755 5.37133 30.7268ZM20.7093 20.7495C20.7727 22.1695 21.8673 23.2275 23.2867 23.2841C24.01 23.3135 24.9093 23.3341 26 23.3341C27.0907 23.3341 27.99 23.3135 28.7133 23.2841C30.1333 23.2275 31.2273 22.1695 31.2907 20.7495C31.316 20.1715 31.3333 19.4801 31.3333 18.6675C31.3333 17.8548 31.316 17.1635 31.2907 16.5855C31.2273 15.1655 30.1327 14.1075 28.7133 14.0508C27.8093 14.0161 26.9047 13.9994 26 14.0008C24.9093 14.0008 24.01 14.0215 23.2867 14.0508C21.8667 14.1075 20.7727 15.1655 20.7093 16.5855C20.684 17.1635 20.6667 17.8541 20.6667 18.6675C20.6667 19.4808 20.684 20.1715 20.7093 20.7495ZM25.3333 17.0008C25.5986 17.0008 25.8529 17.1061 26.0404 17.2937C26.228 17.4812 26.3333 17.7356 26.3333 18.0008V19.3341C26.3333 19.5993 26.228 19.8537 26.0404 20.0412C25.8529 20.2288 25.5986 20.3341 25.3333 20.3341C25.0681 20.3341 24.8138 20.2288 24.6262 20.0412C24.4387 19.8537 24.3333 19.5993 24.3333 19.3341V18.0008C24.3333 17.7356 24.4387 17.4812 24.6262 17.2937C24.8138 17.1061 25.0681 17.0008 25.3333 17.0008Z" fill="#79B833"/>
</svg>
