<svg width="39" height="39" viewBox="0 0 39 39" fill="none" xmlns="http://www.w3.org/2000/svg">
<path d="M29.25 14.625C31.9424 14.625 34.125 12.4424 34.125 9.75C34.125 7.05761 31.9424 4.875 29.25 4.875C26.5576 4.875 24.375 7.05761 24.375 9.75C24.375 12.4424 26.5576 14.625 29.25 14.625Z" fill="#79B833"/>
<path d="M21.125 9.75C21.125 8.593 21.3736 7.49612 21.8107 6.5H9.75C7.95762 6.5 6.5 7.95762 6.5 9.75V29.25C6.5 31.0424 7.95762 32.5 9.75 32.5H29.25C31.0424 32.5 32.5 31.0424 32.5 29.25V17.1892C31.4754 17.6392 30.369 17.8727 29.25 17.875C27.0951 17.875 25.0285 17.019 23.5048 15.4952C21.981 13.9715 21.125 11.9049 21.125 9.75Z" fill="#79B833"/>
</svg>
