<svg width="32" height="32" viewBox="0 0 32 32" fill="none" xmlns="http://www.w3.org/2000/svg">
<path d="M17.4153 2.99964C17.0402 2.62469 16.5316 2.41406 16.0013 2.41406C15.4709 2.41406 14.9623 2.62469 14.5873 2.99964L1.29326 16.2916C1.20029 16.3846 1.12653 16.495 1.07622 16.6165C1.0259 16.7379 1 16.8681 1 16.9996C1 17.1311 1.0259 17.2613 1.07622 17.3828C1.12653 17.5043 1.20029 17.6147 1.29326 17.7076C1.48104 17.8954 1.73571 18.0009 2.00126 18.0009C2.13275 18.0009 2.26295 17.975 2.38443 17.9247C2.50591 17.8744 2.61629 17.8006 2.70926 17.7076L16.0013 4.41364L29.2933 17.7076C29.481 17.8954 29.7357 18.0009 30.0013 18.0009C30.2668 18.0009 30.5215 17.8954 30.7093 17.7076C30.897 17.5199 31.0025 17.2652 31.0025 16.9996C31.0025 16.7341 30.897 16.4794 30.7093 16.2916L26.0013 11.5856V4.99964C26.0013 4.73442 25.8959 4.48007 25.7084 4.29253C25.5208 4.10499 25.2665 3.99964 25.0013 3.99964H23.0013C22.736 3.99964 22.4817 4.10499 22.2942 4.29253C22.1066 4.48007 22.0013 4.73442 22.0013 4.99964V7.58563L17.4153 2.99964Z" fill="#79B833"/>
<path d="M16 6.58594L25.424 16.0099C23.76 15.9313 22.1068 16.3161 20.6486 17.1214C19.1903 17.9267 17.9841 19.1209 17.1644 20.5711C16.3446 22.0213 15.9435 23.6706 16.0056 25.3353C16.0676 27 16.5905 28.6148 17.516 29.9999H7C6.20435 29.9999 5.44129 29.6839 4.87868 29.1213C4.31607 28.5586 4 27.7956 4 26.9999V18.5859L16 6.58594Z" fill="#79B833"/>
<path d="M25 32C26.8565 32 28.637 31.2625 29.9497 29.9497C31.2625 28.637 32 26.8565 32 25C32 23.1435 31.2625 21.363 29.9497 20.0503C28.637 18.7375 26.8565 18 25 18C23.1435 18 21.363 18.7375 20.0503 20.0503C18.7375 21.363 18 23.1435 18 25C18 26.8565 18.7375 28.637 20.0503 29.9497C21.363 31.2625 23.1435 32 25 32ZM28.358 23.014L25.688 27.466C25.5707 27.6616 25.4103 27.8279 25.219 27.9521C25.0278 28.0764 24.8107 28.1554 24.5843 28.1832C24.3579 28.211 24.1282 28.1868 23.9126 28.1124C23.6969 28.038 23.5011 27.9154 23.34 27.754L21.792 26.208C21.6045 26.0202 21.4993 25.7657 21.4994 25.5003C21.4996 25.2349 21.6052 24.9805 21.793 24.793C21.9808 24.6055 22.2353 24.5003 22.5007 24.5004C22.7661 24.5006 23.0205 24.6062 23.208 24.794L24.302 25.888L26.642 21.986C26.7095 21.8733 26.7985 21.775 26.904 21.6968C27.0095 21.6185 27.1294 21.5618 27.2568 21.5299C27.3842 21.4979 27.5166 21.4914 27.6465 21.5106C27.7765 21.5299 27.9013 21.5745 28.014 21.642C28.1267 21.7095 28.225 21.7985 28.3032 21.904C28.3815 22.0095 28.4382 22.1294 28.4701 22.2568C28.5021 22.3842 28.5086 22.5166 28.4894 22.6465C28.4701 22.7765 28.4255 22.9013 28.358 23.014Z" fill="#79B833"/>
</svg>
