<svg width="32" height="32" viewBox="0 0 32 32" fill="none" xmlns="http://www.w3.org/2000/svg">
<path fill-rule="evenodd" clip-rule="evenodd" d="M19.0391 2.86868C18.5458 2.66602 17.9191 2.66602 16.6671 2.66602C15.4151 2.66602 14.7898 2.66602 14.2951 2.86868C13.9696 3.00168 13.6736 3.19772 13.4242 3.44554C13.1748 3.69336 12.9768 3.98806 12.8418 4.31268C12.7164 4.61002 12.6684 4.95802 12.6484 5.46335C12.6389 5.82935 12.5365 6.18693 12.3509 6.50249C12.1652 6.81805 11.9024 7.08125 11.5871 7.26735C11.2654 7.44615 10.9038 7.54088 10.5358 7.54274C10.1678 7.5446 9.80522 7.45355 9.48175 7.27802C9.03109 7.04068 8.70442 6.91002 8.38175 6.86735C7.67586 6.77525 6.96211 6.96494 6.39509 7.39535C5.97109 7.71802 5.65775 8.25668 5.03242 9.33268C4.40575 10.4087 4.09375 10.946 4.02309 11.4727C3.92975 12.174 4.12175 12.8833 4.55642 13.4447C4.75375 13.7007 5.03242 13.9153 5.46309 14.1847C6.09909 14.5807 6.50709 15.2553 6.50709 15.9993C6.50709 16.7433 6.09909 17.418 5.46442 17.8127C5.03242 18.0833 4.75375 18.298 4.55509 18.554C4.34118 18.8316 4.18409 19.1487 4.0928 19.4871C4.00152 19.8254 3.97783 20.1785 4.02309 20.526C4.09375 21.0513 4.40575 21.59 5.03242 22.666C5.65909 23.742 5.97109 24.2793 6.39509 24.6033C6.96042 25.034 7.67509 25.2233 8.38175 25.1313C8.70442 25.0887 9.03109 24.958 9.48175 24.7207C9.80539 24.5449 10.1682 24.4537 10.5365 24.4556C10.9047 24.4575 11.2666 24.5523 11.5884 24.7313C12.2364 25.1047 12.6204 25.7913 12.6484 26.5353C12.6684 27.042 12.7164 27.3887 12.8418 27.686C13.1138 28.3393 13.6364 28.8593 14.2951 29.13C14.7884 29.3327 15.4151 29.3327 16.6671 29.3327C17.9191 29.3327 18.5458 29.3327 19.0391 29.13C19.3646 28.997 19.6605 28.801 19.91 28.5532C20.1594 28.3053 20.3573 28.0106 20.4924 27.686C20.6178 27.3887 20.6658 27.042 20.6858 26.5353C20.7124 25.7913 21.0978 25.1033 21.7471 24.7313C22.0688 24.5525 22.4304 24.4578 22.7984 24.456C23.1664 24.4541 23.5289 24.5451 23.8524 24.7207C24.3031 24.958 24.6298 25.0887 24.9524 25.1313C25.6591 25.2247 26.3738 25.034 26.9391 24.6033C27.3631 24.2807 27.6764 23.742 28.3018 22.666C28.9284 21.59 29.2404 21.0527 29.3111 20.526C29.3562 20.1784 29.3323 19.8253 29.2407 19.4869C29.1492 19.1485 28.9919 18.8315 28.7778 18.554C28.5804 18.298 28.3018 18.0833 27.8711 17.814C27.2351 17.418 26.8271 16.7433 26.8271 15.9993C26.8271 15.2553 27.2351 14.5807 27.8698 14.186C28.3018 13.9153 28.5804 13.7007 28.7791 13.4447C28.993 13.1671 29.1501 12.85 29.2414 12.5116C29.3327 12.1733 29.3563 11.8202 29.3111 11.4727C29.2404 10.9473 28.9284 10.4087 28.3018 9.33268C27.6751 8.25668 27.3631 7.71935 26.9391 7.39535C26.3721 6.96494 25.6583 6.77525 24.9524 6.86735C24.6298 6.91002 24.3031 7.04068 23.8524 7.27802C23.5288 7.45379 23.166 7.54497 22.7977 7.54311C22.4294 7.54124 22.0676 7.44639 21.7458 7.26735C21.4307 7.08108 21.1681 6.81782 20.9827 6.50227C20.7973 6.18671 20.6951 5.82922 20.6858 5.46335C20.6658 4.95668 20.6178 4.61002 20.4924 4.31268C20.3573 3.98806 20.1594 3.69336 19.91 3.44554C19.6605 3.19772 19.3646 3.00168 19.0391 2.86868ZM16.6671 19.9993C18.8938 19.9993 20.6978 18.2087 20.6978 15.9993C20.6978 13.79 18.8924 11.9993 16.6671 11.9993C14.4418 11.9993 12.6364 13.79 12.6364 15.9993C12.6364 18.2087 14.4418 19.9993 16.6671 19.9993Z" fill="#79B833"/>
</svg>
