<svg width="16" height="16" viewBox="0 0 16 16" fill="none" xmlns="http://www.w3.org/2000/svg">
<g clip-path="url(#clip0_3928_3695)">
<path d="M4.968 7.26152C4.4265 6.71952 3.5 7.10352 3.5 7.86952V11.5005C3.5 11.7657 3.60536 12.0201 3.79289 12.2076C3.98043 12.3952 4.23478 12.5005 4.5 12.5005H8.131C8.897 12.5005 9.281 11.574 8.739 11.0325L4.968 7.26152ZM7.793 11.5005H4.5V8.20752L7.793 11.5005Z" fill="#717171"/>
<path d="M2.0605 0.5C1.85555 0.499934 1.6526 0.540253 1.46324 0.618652C1.27389 0.697051 1.10183 0.811995 0.956913 0.956913C0.811995 1.10183 0.697051 1.27389 0.618652 1.46324C0.540253 1.6526 0.499934 1.85555 0.5 2.0605V13.8335C0.5 14.2755 0.675577 14.6994 0.988107 15.0119C1.30064 15.3244 1.72452 15.5 2.1665 15.5H13.94C14.2487 15.5 14.5504 15.4085 14.807 15.237C15.0637 15.0656 15.2637 14.8219 15.3818 14.5367C15.4999 14.2515 15.5309 13.9378 15.4706 13.635C15.4104 13.3323 15.2618 13.0542 15.0435 12.836L3.164 0.957C3.0191 0.812076 2.84706 0.697123 2.65772 0.618709C2.46838 0.540295 2.26544 0.499957 2.0605 0.5ZM1.5 2.0605C1.49993 1.9496 1.53277 1.84116 1.59436 1.74893C1.65594 1.65669 1.7435 1.5848 1.84596 1.54235C1.94842 1.4999 2.06117 1.4888 2.16994 1.51045C2.27871 1.53211 2.37861 1.58555 2.457 1.664L2.842 2.049L2.32 2.57C2.29509 2.59326 2.27511 2.62131 2.26126 2.65245C2.24741 2.6836 2.23998 2.71722 2.23939 2.7513C2.23881 2.78538 2.24509 2.81923 2.25787 2.85083C2.27064 2.88244 2.28965 2.91115 2.31375 2.93525C2.33785 2.95935 2.36656 2.97836 2.39817 2.99113C2.42977 3.00391 2.46362 3.01019 2.4977 3.00961C2.53178 3.00902 2.5654 3.00159 2.59655 2.98774C2.62769 2.97389 2.65574 2.95391 2.679 2.929L3.2005 2.408L4.216 3.423L3.82 3.82C3.79509 3.84326 3.77511 3.87131 3.76126 3.90245C3.74741 3.9336 3.73998 3.96722 3.73939 4.0013C3.73881 4.03538 3.74509 4.06923 3.75787 4.10083C3.77064 4.13244 3.78965 4.16115 3.81375 4.18525C3.83785 4.20935 3.86656 4.22836 3.89817 4.24113C3.92977 4.25391 3.96362 4.26019 3.9977 4.25961C4.03178 4.25902 4.0654 4.25159 4.09655 4.23774C4.12769 4.22389 4.15574 4.20391 4.179 4.179L4.5755 3.783L5.5915 4.798L5.07 5.32C5.04509 5.34326 5.02511 5.37131 5.01126 5.40245C4.99741 5.4336 4.98998 5.46722 4.98939 5.5013C4.98881 5.53538 4.99509 5.56923 5.00787 5.60083C5.02064 5.63244 5.03965 5.66115 5.06375 5.68525C5.08785 5.70935 5.11656 5.72836 5.14817 5.74113C5.17977 5.75391 5.21362 5.76019 5.2477 5.75961C5.28178 5.75902 5.3154 5.75159 5.34655 5.73774C5.37769 5.72389 5.40574 5.70391 5.429 5.679L5.9505 5.1575L6.9665 6.1735L6.57 6.57C6.54509 6.59326 6.52511 6.62131 6.51126 6.65245C6.49741 6.6836 6.48998 6.71722 6.48939 6.7513C6.48881 6.78538 6.49509 6.81923 6.50787 6.85083C6.52064 6.88244 6.53965 6.91115 6.56375 6.93525C6.58785 6.95935 6.61656 6.97836 6.64817 6.99113C6.67977 7.00391 6.71362 7.01019 6.7477 7.00961C6.78178 7.00902 6.8154 7.00159 6.84655 6.98774C6.87769 6.97389 6.90574 6.95391 6.929 6.929L7.3255 6.5325L8.341 7.5485L7.82 8.07C7.79509 8.09326 7.77511 8.12131 7.76126 8.15245C7.74741 8.1836 7.73998 8.21722 7.73939 8.2513C7.73881 8.28538 7.74509 8.31923 7.75787 8.35083C7.77064 8.38244 7.78965 8.41115 7.81375 8.43525C7.83785 8.45935 7.86656 8.47836 7.89817 8.49113C7.92977 8.50391 7.96362 8.51019 7.9977 8.50961C8.03178 8.50902 8.0654 8.50159 8.09655 8.48774C8.12769 8.47389 8.15574 8.45391 8.179 8.429L8.7005 7.9075L9.716 8.9235L9.32 9.32C9.29509 9.34326 9.27511 9.37131 9.26126 9.40245C9.24741 9.4336 9.23998 9.46722 9.23939 9.5013C9.23881 9.53538 9.24509 9.56923 9.25787 9.60083C9.27064 9.63244 9.28965 9.66115 9.31375 9.68525C9.33785 9.70935 9.36656 9.72836 9.39816 9.74113C9.42977 9.75391 9.46362 9.76019 9.4977 9.75961C9.53178 9.75902 9.5654 9.75159 9.59655 9.73774C9.62769 9.72389 9.65574 9.70391 9.679 9.679L10.0755 9.2825L11.091 10.2985L10.57 10.82C10.5451 10.8433 10.5251 10.8713 10.5113 10.9025C10.4974 10.9336 10.49 10.9672 10.4894 11.0013C10.4888 11.0354 10.4951 11.0692 10.5079 11.1008C10.5206 11.1324 10.5396 11.1611 10.5638 11.1852C10.5879 11.2094 10.6166 11.2284 10.6482 11.2411C10.6798 11.2539 10.7136 11.2602 10.7477 11.2596C10.7818 11.259 10.8154 11.2516 10.8465 11.2377C10.8777 11.2239 10.9057 11.2039 10.929 11.179L11.4505 10.6575L12.466 11.6735L12.07 12.07C12.0451 12.0933 12.0251 12.1213 12.0113 12.1525C11.9974 12.1836 11.99 12.2172 11.9894 12.2513C11.9888 12.2854 11.9951 12.3192 12.0079 12.3508C12.0206 12.3824 12.0396 12.4111 12.0638 12.4352C12.0879 12.4594 12.1166 12.4784 12.1482 12.4911C12.1798 12.5039 12.2136 12.5102 12.2477 12.5096C12.2818 12.509 12.3154 12.5016 12.3465 12.4877C12.3777 12.4739 12.4057 12.4539 12.429 12.429L12.8255 12.0325L13.841 13.0485L13.32 13.57C13.2951 13.5933 13.2751 13.6213 13.2613 13.6525C13.2474 13.6836 13.24 13.7172 13.2394 13.7513C13.2388 13.7854 13.2451 13.8192 13.2579 13.8508C13.2706 13.8824 13.2896 13.9111 13.3138 13.9352C13.3379 13.9594 13.3666 13.9784 13.3982 13.9911C13.4298 14.0039 13.4636 14.0102 13.4977 14.0096C13.5318 14.009 13.5654 14.0016 13.5965 13.9877C13.6277 13.9739 13.6557 13.9539 13.679 13.929L14.2005 13.4075L14.3355 13.5425C14.4141 13.6208 14.4677 13.7207 14.4894 13.8295C14.5112 13.9383 14.5002 14.0512 14.4578 14.1537C14.4154 14.2563 14.3435 14.3439 14.2512 14.4055C14.159 14.4672 14.0505 14.5001 13.9395 14.5H2.1665C1.98973 14.5 1.82021 14.4298 1.69521 14.3048C1.57022 14.1798 1.5 14.0103 1.5 13.8335V2.0605Z" fill="#717171"/>
</g>
<defs>
<clipPath id="clip0_3928_3695">
<rect width="16" height="16" fill="white"/>
</clipPath>
</defs>
</svg>
