<svg width="16" height="16" viewBox="0 0 16 16" fill="none" xmlns="http://www.w3.org/2000/svg">
<path d="M8.20406 1.03125L7.89156 1.96875H10.6103L10.2978 1.03125H8.20406ZM5.00094 1.21875C4.18844 1.21875 3.58844 1.50375 3.22281 1.945C2.85469 2.38594 2.71969 2.95312 2.71969 3.5V11.7188H3.28219V3.5C3.28219 3.04688 3.39781 2.61406 3.65406 2.305C3.91344 1.99625 4.31344 1.78125 5.00094 1.78125H7.36031L7.54781 1.21875H5.00094ZM7.47906 2.53125L6.11344 3.85938L7.42281 3.2625L6.34469 5.97813L8.30094 4.15625L8.26656 7.02187L9.26031 3.85938L11.4634 7.53438L10.4853 3.44375L12.4072 4.57188L10.9228 2.53125H7.47906ZM2.26813 12.2812L2.10938 15.4062H3.89156L3.73219 12.2812H2.26813Z" fill="#717171"/>
</svg>
